<svg width="123" height="99" viewBox="0 0 123 99" fill="none" xmlns="http://www.w3.org/2000/svg">
<g clip-path="url(#clip0_1_2)">
<path fill-rule="evenodd" clip-rule="evenodd" d="M8.32 0H114.56C119.13 0 122.88 3.74 122.88 8.32V90C122.88 94.57 119.14 98.32 114.56 98.32H8.32C3.74 98.31 0 94.57 0 90V8.32C0 3.74 3.74 0 8.32 0ZM37.46 65.4H23.01V58.87L37.46 41.69H44.36V59.25H47.95V65.4H44.36V70.75H37.46V65.4ZM37.46 59.25V50.23L29.83 59.25H37.46ZM49.77 56.34C49.77 50.91 50.75 47.11 52.7 44.95C54.66 42.78 57.64 41.7 61.63 41.7C63.55 41.7 65.14 41.94 66.37 42.41C67.61 42.88 68.61 43.5 69.39 44.26C70.17 45.02 70.79 45.82 71.23 46.65C71.68 47.49 72.04 48.47 72.31 49.58C72.84 51.71 73.11 53.93 73.11 56.25C73.11 61.43 72.23 65.22 70.48 67.62C68.73 70.02 65.71 71.23 61.42 71.23C59.02 71.23 57.08 70.84 55.59 70.08C54.11 69.31 52.9 68.19 51.94 66.71C51.25 65.66 50.72 64.22 50.33 62.4C49.96 60.56 49.77 58.55 49.77 56.34ZM57.63 56.35C57.63 59.98 57.95 62.47 58.59 63.8C59.23 65.13 60.17 65.8 61.39 65.8C62.19 65.8 62.89 65.52 63.49 64.96C64.08 64.39 64.51 63.5 64.79 62.28C65.07 61.06 65.21 59.15 65.21 56.57C65.21 52.78 64.89 50.23 64.25 48.92C63.6 47.62 62.64 46.96 61.36 46.96C60.04 46.96 59.1 47.63 58.51 48.96C57.92 50.28 57.63 52.75 57.63 56.35ZM89.37 65.4H74.92V58.87L89.37 41.69H96.27V59.25H99.86V65.4H96.27V70.75H89.37V65.4ZM89.37 59.25V50.23L81.74 59.25H89.37ZM117.97 23.29H5.29V90.8C5.29 91.44 5.54 92 5.96 92.43C6.38 92.86 6.95 93.1 7.59 93.1H115.63C116.27 93.1 116.83 92.85 117.26 92.43C117.69 92 117.93 91.44 117.93 90.8V23.29H117.97ZM106.64 9.35C108.91 9.35 110.75 11.19 110.75 13.46C110.75 15.73 108.91 17.57 106.64 17.57C104.37 17.57 102.53 15.73 102.53 13.46C102.54 11.19 104.38 9.35 106.64 9.35ZM78.8 9.35C81.07 9.35 82.91 11.19 82.91 13.46C82.91 15.73 81.07 17.57 78.8 17.57C76.53 17.57 74.69 15.73 74.69 13.46C74.69 11.19 76.53 9.35 78.8 9.35ZM92.72 9.35C94.99 9.35 96.83 11.19 96.83 13.46C96.83 15.73 94.99 17.57 92.72 17.57C90.45 17.57 88.61 15.73 88.61 13.46C88.61 11.19 90.45 9.35 92.72 9.35Z" fill="#FF004F"/>
</g>
<defs>
<clipPath id="clip0_1_2">
<rect width="122.88" height="98.31" fill="white"/>
</clipPath>
</defs>
</svg>
