<svg width="427" height="402" viewBox="0 0 427 402" fill="none" xmlns="http://www.w3.org/2000/svg">
<mask id="mask0_1_9" style="mask-type:alpha" maskUnits="userSpaceOnUse" x="0" y="0" width="427" height="402">
<path fill-rule="evenodd" clip-rule="evenodd" d="M203.64 19.0748C202.389 19.2541 198.123 19.7772 194.16 20.2374C136.507 26.9309 83.607 64.4481 56.1751 118.096C50.2487 129.687 44.5551 144.532 41.7482 155.712C41.1285 158.179 40.4899 159.044 39.0056 159.425C35.6852 160.278 30.5749 166.238 29.2499 170.803C27.5912 176.518 27.4994 223.673 29.1361 229.238C30.6105 234.252 33.2332 237.505 37.8945 240.101C41.3659 242.034 42.4611 242.263 46.9874 242.002C53.9112 241.601 58.4467 238.775 61.7261 232.819L64.0758 228.55L64.0818 200.612C64.0872 176.484 63.918 172.25 62.8441 169.57C61.6511 166.593 61.6753 166.198 63.4304 159.981C80.0947 100.949 126.383 56.8364 184.475 44.6251C255.318 29.734 326.875 65.5578 359.069 132.033C363.686 141.565 370.829 161.668 370.923 165.393C370.948 166.409 370.437 169.151 369.785 171.485C368.053 177.691 368.057 222.35 369.79 229.424C370.944 234.133 370.923 234.495 369.063 241.644C361.675 270.047 347.001 295.488 326.012 316.285C317.375 324.842 314.349 327.355 304.172 334.419L296.246 339.92L293.933 337.682C290.569 334.43 288.788 333.703 284.274 333.74C280.789 333.769 278.809 334.531 269.658 339.366C256.933 346.092 254.716 348.377 254.248 355.254C253.977 359.239 254.271 360.367 257.059 366.039C260.558 373.16 263.965 376.697 268.541 377.957C272.884 379.154 275.022 378.502 286.881 372.365C299.484 365.843 301.263 363.954 301.72 356.613C301.886 353.947 301.664 351.082 301.226 350.245C300.514 348.885 301.286 348.143 308.539 343.217C332.01 327.278 350.102 306.929 364.608 280.158C369.007 272.041 376.074 253.529 378.464 243.867C379.215 240.834 379.413 240.631 380.867 241.427C381.767 241.92 384.66 242.167 387.562 241.999C394.443 241.601 398.989 238.764 402.27 232.819L404.626 228.55V200.224V171.898L402.691 168.017C400.994 164.614 396.12 160.102 392.916 158.969C392.504 158.824 391.278 155.562 390.192 151.72C376.556 103.496 342.616 61.7179 298.445 38.7814C280.768 29.6029 262.119 23.6055 241.562 20.4888C234.232 19.3767 208.281 18.4097 203.64 19.0748ZM206.851 60.6205C158.965 63.8194 115.706 93.4751 94.0735 137.932C89.2551 147.834 86.8638 154.395 84.1122 165.255C76.1577 196.656 79.1869 230.202 92.5877 259.111C94.6416 263.54 96.3215 267.74 96.3215 268.443C96.3215 269.147 93.2536 281.412 89.5039 295.7C85.7542 309.988 82.6825 323.08 82.678 324.794C82.662 330.701 87.1558 336.146 92.9669 337.261C94.8653 337.626 102.426 335.855 122.813 330.272L150.116 322.794L155.263 325.421C165.927 330.865 178.77 335.232 192.643 338.131C200.914 339.859 230.365 340.087 238.528 338.486C260.993 334.078 279.242 326.3 296.17 313.915C336.702 284.263 358.391 233.798 352.287 183.348C347.1 140.472 323.743 103.425 287.448 80.5055C270.215 69.6236 247.587 62.1028 228.453 60.8976C224.817 60.6686 220.478 60.3784 218.809 60.2527C217.14 60.1269 211.759 60.293 206.851 60.6205ZM20.857 173.958C17.488 175.843 17.444 176.178 17.444 199.921C17.444 212.396 17.6564 223.168 17.915 223.859C18.4384 225.254 22.028 227.386 23.8528 227.386C24.8919 227.386 25.0284 224.238 25.0284 200.224C25.0284 174.864 24.9404 173.063 23.7012 173.085C22.9715 173.098 21.6913 173.491 20.857 173.958ZM408.039 200.224C408.039 224.238 408.176 227.386 409.215 227.386C411.039 227.386 414.629 225.254 415.152 223.859C415.411 223.168 415.623 212.532 415.623 200.224C415.623 187.916 415.411 177.28 415.152 176.589C414.629 175.194 411.039 173.062 409.215 173.062C408.176 173.062 408.039 176.21 408.039 200.224ZM162.415 187.085C157.002 189.304 153.256 194.636 153.221 200.173C153.182 206.394 158.437 212.668 164.65 213.816C173.222 215.401 181.885 206.43 180.136 197.78C178.481 189.59 169.512 184.177 162.415 187.085ZM211.609 187.491C206.145 189.916 203.261 194.176 203.261 199.822C203.261 206.598 206.996 211.73 213.166 213.429C220.621 215.484 228.585 210.29 229.576 202.728C230.487 195.774 227.755 190.447 221.874 187.714C218.167 185.99 215.139 185.925 211.609 187.491ZM260.326 187.848C256.587 189.793 254.635 192.303 253.294 196.888C250.672 205.86 259.287 215.504 268.418 213.816C274.63 212.668 279.885 206.394 279.847 200.173C279.784 190.222 268.933 183.371 260.326 187.848Z" fill="black"/>
</mask>
<g mask="url(#mask0_1_9)">
<rect x="11" y="-30" width="445" height="432" fill="#FF004F"/>
</g>
</svg>
