<svg width="980" height="885" viewBox="0 0 980 885" fill="none" xmlns="http://www.w3.org/2000/svg">
<path fill-rule="evenodd" clip-rule="evenodd" d="M225.004 0.303837L65.504 0.872837L57.594 3.11784C31.49 10.5298 13.882 27.2398 4.89399 53.1318C-0.296009 68.0838 0.00399127 43.9168 0.00399127 446.798C0.00399127 853.817 -0.342009 828.281 5.40899 845.282C11.863 864.358 25.908 878.04 44.012 882.888C48.806 884.172 105.294 884.358 488.338 884.353C975.003 884.346 935.022 884.921 949.862 877.719C962.825 871.428 971.535 860.624 977.156 843.864L979.504 836.864L979.789 511.364C979.988 283.463 979.751 183.383 978.998 177.59C975.523 150.844 960.856 133.006 936.261 125.611C930.907 124.002 915.982 123.845 723.004 123.372L515.504 122.864L509.585 120.61C499.719 116.852 494.442 112.853 490.332 106.019C468.85 70.2958 447.144 36.7568 439.209 27.0258C426.249 11.1318 408.319 1.06284 391.288 0.113837C387.557 -0.0941626 312.729 -0.00916263 225.004 0.303837ZM877.57 207.448C895.784 210.774 911.738 225.726 916.473 243.906C917.829 249.113 918.004 280.013 918.004 514.364C918.004 805.013 918.462 783.571 911.98 796.412C906.049 808.161 892.515 818.413 879.205 821.239C875.332 822.061 770.376 822.364 489.183 822.364C117.525 822.364 104.233 822.301 97.77 820.509C81.011 815.862 68.822 803.58 63.342 785.821C61.578 780.102 61.504 769.247 61.504 514.364V248.864L63.743 241.744C67.854 228.673 76.562 218.206 88.286 212.244C100.346 206.11 70.789 206.538 488.57 206.447C759.712 206.388 873.37 206.681 877.57 207.448ZM235.352 356.784C226.29 358.982 218.918 363.297 211.427 370.787C200.724 381.491 196.039 392.719 196.016 407.72C195.971 437.456 218.585 460.364 247.986 460.364C262.909 460.364 275.555 454.82 285.988 443.702C295.521 433.544 299.98 422.123 299.98 407.864C299.98 392.737 295.327 381.534 284.581 370.787C277.003 363.21 270.5 359.451 260.544 356.894C253.499 355.085 242.552 355.037 235.352 356.784ZM419.125 359.491C406.001 361.671 390.548 373.299 384.654 385.429C370.54 414.478 386.244 448.552 417.097 455.824C422.679 457.14 445.268 457.334 592.504 457.334C775.936 457.334 767.739 457.572 778.884 451.925C785.093 448.779 793.967 440.665 797.83 434.602C803.407 425.848 805.245 418.305 804.85 405.785C804.512 395.081 804.357 394.417 800.261 386.151C793.005 371.507 779.748 361.619 764.394 359.4C755.655 358.136 426.757 358.224 419.125 359.491ZM236.415 549.848C226.922 551.913 218.335 556.783 211.004 564.26C182.856 592.964 195.913 641.717 234.504 652.007C241.377 653.84 255.436 653.718 262.072 651.769C284.965 645.045 300.004 625.06 300.004 601.364C300.004 586.695 295.094 574.549 285.004 564.26C272.094 551.094 254.572 545.897 236.415 549.848ZM414.504 553.773C395.186 559.984 383.06 574.229 379.932 594.387C376.069 619.288 393.23 644.153 417.803 649.262C421.541 650.039 473.109 650.364 592.843 650.364C742.034 650.364 763.295 650.179 768.462 648.833C785.135 644.49 798.685 631.54 803.411 615.432C805.49 608.345 805.481 594.334 803.392 587.296C799.221 573.235 790.387 562.836 777.312 556.592L769.504 552.864L594.004 552.675C453.301 552.524 417.711 552.741 414.504 553.773Z" fill="#FF004F"/>
</svg>
