<svg width="123" height="109" viewBox="0 0 123 109" fill="none" xmlns="http://www.w3.org/2000/svg">
<g clip-path="url(#clip0_2_23)">
<path fill-rule="evenodd" clip-rule="evenodd" d="M3.1 56.47H21.3C22.1214 56.4726 22.9083 56.8001 23.4891 57.3809C24.0699 57.9617 24.3974 58.7486 24.4 59.57V96.77C24.3974 97.5914 24.0699 98.3783 23.4891 98.9591C22.9083 99.5399 22.1214 99.8674 21.3 99.87H3.1C2.27864 99.8674 1.49167 99.5399 0.910882 98.9591C0.33009 98.3783 0.00263681 97.5914 0 96.77L0 59.57C0.00263681 58.7486 0.33009 57.9617 0.910882 57.3809C1.49167 56.8001 2.27864 56.4726 3.1 56.47ZM28.42 96.23V60H47.77C54.69 61.24 61.61 65 68.52 69.35H81.2C86.93 69.69 89.94 75.51 84.37 79.35C79.92 82.61 74.06 82.42 68.05 81.89C63.9 81.68 63.72 87.25 68.05 87.27C69.55 87.39 71.18 87.04 72.61 87.03C80.11 87.03 86.29 85.59 90.07 79.67L92 75.16L110.85 65.81C120.29 62.71 126.99 72.58 120.04 79.44C106.889 89.0409 92.8203 97.3179 78.04 104.15C67.64 110.48 57.23 110.26 46.83 104.15L28.43 96.23H28.42ZM62 7.65C61.8848 7.55539 61.7524 7.48407 61.61 7.44C61.5047 7.416 61.3953 7.416 61.29 7.44C61.007 7.46845 60.7457 7.60447 60.56 7.82L58.03 10.82C57.8045 11.0912 57.4922 11.2762 57.146 11.3437C56.7997 11.4111 56.4408 11.3568 56.13 11.19C55.79 11.01 55.43 10.84 55.07 10.69C54.71 10.54 54.28 10.38 53.9 10.25C53.52 10.12 53.13 10.01 52.68 9.88C52.23 9.75 51.85 9.65 51.46 9.56C51.1368 9.47792 50.849 9.29315 50.6398 9.03348C50.4306 8.77381 50.3114 8.45325 50.3 8.12L49.92 4C49.9042 3.8542 49.8636 3.71216 49.8 3.58C49.7385 3.4722 49.661 3.37441 49.57 3.29C49.4796 3.20698 49.3694 3.14846 49.25 3.12C49.1151 3.08916 48.9749 3.08916 48.84 3.12L43.53 3.64C43.3881 3.6591 43.2498 3.69955 43.12 3.76C42.99 3.83097 42.8746 3.92598 42.78 4.04C42.7012 4.13863 42.6402 4.25032 42.6 4.37C42.5794 4.47904 42.5794 4.59096 42.6 4.7L42.97 8.59C43.0044 8.94995 42.911 9.31053 42.7062 9.60854C42.5015 9.90656 42.1983 10.123 41.85 10.22C41.53 10.33 41.17 10.46 40.76 10.63C40.35 10.8 40 10.97 39.68 11.14H39.62C39.28 11.32 38.92 11.51 38.62 11.71H38.52C38.18 11.91 37.85 12.12 37.52 12.33C37.247 12.5105 36.9239 12.6 36.597 12.5856C36.2701 12.5712 35.9561 12.4538 35.7 12.25L32.24 9.57C32.1346 9.48527 32.0165 9.41776 31.89 9.37C31.7912 9.348 31.6888 9.348 31.59 9.37C31.4471 9.39045 31.3086 9.43437 31.18 9.5H31.12C31.0272 9.56575 30.9432 9.64304 30.87 9.73L27.52 13.8C27.4191 13.9216 27.3411 14.0605 27.29 14.21C27.2702 14.3158 27.2702 14.4243 27.29 14.53V14.6C27.3005 14.7188 27.3345 14.8344 27.39 14.94V14.99C27.4562 15.0884 27.5372 15.1761 27.63 15.25L30.63 17.78C30.9053 18.0049 31.093 18.3191 31.1606 18.6681C31.2282 19.017 31.1714 19.3786 31 19.69C30.8205 20.0152 30.6569 20.3489 30.51 20.69C30.3437 21.0723 30.1969 21.4628 30.07 21.86C29.95 22.23 29.82 22.63 29.69 23.08C29.56 23.53 29.46 23.92 29.37 24.3C29.308 24.6278 29.1407 24.9263 28.8933 25.1502C28.646 25.374 28.3323 25.5109 28 25.54L23.87 25.92C23.7274 25.9358 23.5886 25.9764 23.46 26.04C23.347 26.1023 23.2456 26.1835 23.16 26.28C23.0822 26.374 23.0244 26.4829 22.99 26.6C22.9631 26.732 22.9631 26.868 22.99 27L23.51 32.31C23.5244 32.4561 23.5651 32.5984 23.63 32.73C23.6967 32.86 23.7885 32.9755 23.9 33.07C24.0011 33.1451 24.1121 33.2057 24.23 33.25C24.3524 33.2711 24.4776 33.2711 24.6 33.25L28.49 32.88C28.8405 32.8582 29.1878 32.9576 29.4737 33.1615C29.7596 33.3654 29.9666 33.6615 30.06 34C30.17 34.32 30.31 34.69 30.48 35.09C30.65 35.49 30.81 35.84 30.99 36.18L31.06 36.32C31.22 36.63 31.4 36.97 31.6 37.32L32.27 38.42C32.4431 38.693 32.5265 39.0133 32.5086 39.336C32.4907 39.6588 32.3723 39.9679 32.17 40.22L29.4 43.63C29.3271 43.7289 29.2667 43.8364 29.22 43.95C29.2043 44.046 29.2043 44.144 29.22 44.24C29.233 44.3863 29.2738 44.5289 29.34 44.66C29.4046 44.78 29.4931 44.8855 29.6 44.97C30.98 46.12 32.4 47.25 33.77 48.41C33.8613 48.4758 33.9626 48.5264 34.07 48.56C34.1953 48.5859 34.3247 48.5859 34.45 48.56C34.6022 48.544 34.7508 48.5034 34.89 48.44H34.94C35.0347 48.3763 35.125 48.3062 35.21 48.23L37.71 45.23C37.9347 44.9547 38.2482 44.7662 38.5967 44.6969C38.9453 44.6275 39.307 44.6817 39.62 44.85C39.9646 45.0346 40.3184 45.2015 40.68 45.35C41.07 45.52 41.46 45.66 41.85 45.79C42.24 45.92 42.61 46.04 43.07 46.17C43.53 46.3 43.9 46.4 44.29 46.49C44.6195 46.5649 44.915 46.7468 45.1303 47.0073C45.3456 47.2678 45.4685 47.5923 45.48 47.93L45.86 52C45.8759 52.1439 45.9201 52.2832 45.99 52.41C46.0453 52.5247 46.1236 52.6268 46.22 52.71C46.3166 52.7838 46.4247 52.8412 46.54 52.88C46.6754 52.9059 46.8146 52.9059 46.95 52.88L52.25 52.36C52.3993 52.3455 52.5448 52.3049 52.68 52.24C52.799 52.1778 52.907 52.0968 53 52C53.0901 51.8892 53.1611 51.7642 53.21 51.63C53.2405 51.5119 53.2405 51.3881 53.21 51.27L52.85 47.37C52.8139 47.0299 52.8927 46.6875 53.074 46.3975C53.2553 46.1075 53.5285 45.8866 53.85 45.77C54.24 45.64 54.63 45.49 55.01 45.33H55.13C55.45 45.19 55.77 45.03 56.13 44.85H56.19C56.57 44.66 56.94 44.46 57.27 44.26L58.38 43.59C58.6515 43.4162 58.9712 43.3331 59.2929 43.3529C59.6147 43.3727 59.9219 43.4942 60.17 43.7L63.55 46.46C63.6511 46.5351 63.7621 46.5957 63.88 46.64C63.9852 46.6651 64.0948 46.6651 64.2 46.64C64.343 46.6331 64.4828 46.5956 64.61 46.53C64.7243 46.4573 64.8257 46.366 64.91 46.26C66.06 44.88 67.19 43.46 68.35 42.09C68.4175 42.0034 68.4683 41.9051 68.5 41.8C68.5211 41.6742 68.5211 41.5458 68.5 41.42C68.4827 41.2681 68.4422 41.1197 68.38 40.98C68.3153 40.86 68.2308 40.7518 68.13 40.66L65.13 38.22C64.849 37.9974 64.6558 37.6826 64.5844 37.3312C64.513 36.9799 64.5681 36.6146 64.74 36.3C64.9246 35.9554 65.0915 35.6016 65.24 35.24C65.41 34.83 65.56 34.44 65.68 34.08C65.8 33.72 65.92 33.3 66.05 32.85C66.18 32.4 66.28 32.03 66.37 31.63C66.4462 31.2956 66.6325 30.9965 66.8991 30.7807C67.1657 30.5649 67.497 30.4449 67.84 30.44L72 30C72.1458 29.9842 72.2878 29.9436 72.42 29.88C72.5256 29.8153 72.6229 29.738 72.71 29.65C72.7838 29.5534 72.8412 29.4453 72.88 29.33C72.9014 29.2042 72.9014 29.0758 72.88 28.95L72.36 23.65C72.3427 23.5077 72.3022 23.3692 72.24 23.24V23.18C72.1711 23.0747 72.0868 22.9803 71.99 22.9C71.8914 22.8212 71.7797 22.7602 71.66 22.72C71.551 22.6994 71.439 22.6994 71.33 22.72L67.4 23C67.0604 23.0326 66.7196 22.9523 66.4303 22.7715C66.141 22.5907 65.9195 22.3195 65.8 22C65.67 21.63 65.53 21.24 65.35 20.84C65.17 20.44 65 20.02 64.83 19.69V19.62C64.6604 19.2774 64.4735 18.9436 64.27 18.62C64.07 18.28 63.84 17.94 63.61 17.62C63.4223 17.3436 63.3296 17.0137 63.3458 16.68C63.362 16.3462 63.4863 16.0269 63.7 15.77L66.44 12.38C66.5268 12.276 66.5945 12.1575 66.64 12.03C66.6612 11.9345 66.6612 11.8355 66.64 11.74C66.6194 11.594 66.5755 11.4522 66.51 11.32V11.25C66.4513 11.1608 66.3806 11.08 66.3 11.01L62.55 7.93C62.3488 7.87693 62.1613 7.78146 62 7.65ZM103.38 32.25C103.222 32.1158 103.039 32.0147 102.842 31.9529C102.644 31.891 102.436 31.8696 102.23 31.89C101.817 31.9368 101.437 32.1409 101.17 32.46L99.64 34.31C99.1538 34.0583 98.649 33.8443 98.13 33.67C97.59 33.5 97.13 33.35 96.55 33.22L96.31 30.64C96.2734 30.228 96.0758 29.8471 95.76 29.58C95.604 29.4477 95.4218 29.3499 95.2253 29.293C95.0288 29.2362 94.8225 29.2215 94.62 29.25L91.36 29.57C90.9721 29.6225 90.6166 29.8144 90.36 30.11C90.2243 30.2667 90.1222 30.4497 90.0603 30.6475C89.9984 30.8454 89.9778 31.0539 90 31.26L90.22 33.63C89.6918 33.8009 89.1797 34.0184 88.69 34.28C88.2045 34.5197 87.7366 34.7938 87.29 35.1L85.23 33.44C85.0807 33.3017 84.9035 33.197 84.7102 33.1332C84.517 33.0694 84.3123 33.0478 84.11 33.07C83.6944 33.1174 83.3139 33.3256 83.05 33.65L81.05 36.14C80.9162 36.2978 80.8153 36.4808 80.7533 36.6781C80.6913 36.8755 80.6694 37.0833 80.689 37.2893C80.7085 37.4952 80.7692 37.6952 80.8672 37.8774C80.9653 38.0596 81.0988 38.2203 81.26 38.35L83 39.88C82.7474 40.3645 82.5366 40.8697 82.37 41.39C82.19 41.93 82.04 42.39 81.91 42.97L79.33 43.21C78.9189 43.2497 78.5391 43.4467 78.27 43.76C78.1474 43.9223 78.06 44.1084 78.0135 44.3065C77.967 44.5045 77.9624 44.7101 78 44.91L78.32 48.16C78.3601 48.5681 78.5574 48.9446 78.87 49.21C79.0242 49.3465 79.2054 49.4491 79.4017 49.5111C79.5981 49.5731 79.8054 49.5932 80.01 49.57L82.38 49.35C82.5437 49.8731 82.7511 50.3816 83 50.87C83.2478 51.3641 83.5215 51.8448 83.82 52.31L82.16 54.31C82.0229 54.4598 81.9197 54.6374 81.8576 54.8307C81.7955 55.024 81.7758 55.2284 81.8 55.43C81.8575 55.8231 82.061 56.1802 82.37 56.43L84.9 58.6C85.0588 58.731 85.2428 58.8278 85.4407 58.8846C85.6385 58.9414 85.8459 58.9568 86.05 58.93C86.4645 58.8901 86.8494 58.6976 87.13 58.39L88.67 56.51C89.1534 56.7676 89.6587 56.9818 90.18 57.15C90.698 57.329 91.2255 57.4792 91.76 57.6L92 60.19C92.0431 60.5972 92.2398 60.9727 92.55 61.24C92.7077 61.3732 92.8913 61.4723 93.0893 61.5308C93.2873 61.5893 93.4952 61.6061 93.7 61.58L96.95 61.26C97.3569 61.2159 97.732 61.0194 98 60.71C98.1357 60.5533 98.2378 60.3703 98.2997 60.1725C98.3616 59.9746 98.3822 59.7661 98.36 59.56L98.13 57.19C98.6596 57.0227 99.1719 56.8051 99.66 56.54C100.152 56.2972 100.629 56.0268 101.09 55.73L103.09 57.39C103.247 57.5257 103.43 57.6278 103.628 57.6897C103.825 57.7516 104.034 57.7722 104.24 57.75C104.446 57.731 104.646 57.6708 104.828 57.5728C105.01 57.4749 105.171 57.3413 105.3 57.18L107.38 54.66C107.511 54.5011 107.609 54.3173 107.667 54.1197C107.726 53.9221 107.744 53.7147 107.72 53.51C107.681 53.093 107.485 52.7066 107.17 52.43L105.29 50.91C105.573 50.43 105.811 49.9245 106 49.4C106.178 48.885 106.328 48.3609 106.45 47.83L109.04 47.59C109.431 47.5386 109.787 47.3423 110.04 47.04C110.174 46.8826 110.273 46.699 110.332 46.501C110.39 46.3029 110.407 46.0948 110.38 45.89L110.06 42.64C110.004 42.251 109.809 41.8956 109.51 41.64C109.354 41.5025 109.171 41.3987 108.974 41.335C108.776 41.2713 108.567 41.2492 108.36 41.27L105.99 41.5C105.812 40.9745 105.594 40.4631 105.34 39.97C105.111 39.4789 104.836 39.0102 104.52 38.57L106.19 36.51C106.324 36.3585 106.426 36.1807 106.488 35.9879C106.55 35.795 106.571 35.5914 106.55 35.39C106.503 34.9766 106.299 34.597 105.98 34.33L103.48 32.28H103.4L103.38 32.25ZM93.5 39.08C94.3483 39.0031 95.2034 39.088 96.02 39.33C96.8028 39.5791 97.532 39.9725 98.17 40.49C98.804 41.0139 99.3304 41.6557 99.72 42.38C100.128 43.1234 100.373 43.9448 100.44 44.79C100.517 45.6383 100.433 46.4935 100.19 47.31C99.9592 48.0956 99.5754 48.8279 99.0605 49.4646C98.5457 50.1013 97.91 50.6299 97.19 51.02C96.4439 51.4195 95.6235 51.6611 94.78 51.73C93.9317 51.8124 93.0755 51.7275 92.26 51.48C91.4747 51.2344 90.7421 50.8444 90.1 50.33C89.4716 49.7993 88.9491 49.1547 88.56 48.43C88.1299 47.6855 87.8672 46.8563 87.79 46C87.6556 44.7522 87.8981 43.4927 88.4863 42.384C89.0745 41.2753 89.9814 40.3683 91.09 39.78C91.8325 39.3701 92.6544 39.1246 93.5 39.06V39.08ZM62.56 4.5C62.91 4.60995 63.2456 4.761 63.56 4.95C63.7803 5.00276 63.9856 5.1054 64.16 5.25L68.19 8.6C68.5639 8.90639 68.8819 9.27517 69.13 9.69L69.21 9.82C69.4649 10.2917 69.6278 10.8075 69.69 11.34C69.7598 11.8991 69.7016 12.4667 69.52 13C69.3613 13.4685 69.121 13.9053 68.81 14.29L66.75 16.85L66.88 17.06C67.1423 17.4995 67.3793 17.9536 67.59 18.42C67.83 18.8867 68.03 19.3167 68.19 19.71L68.27 19.91L70.97 19.65C71.4941 19.5893 72.0251 19.6369 72.53 19.79H72.61C73.0736 19.9436 73.5068 20.1772 73.89 20.48L74.03 20.6C74.387 20.9134 74.688 21.2854 74.92 21.7L75 21.83C75.2299 22.2833 75.3756 22.7746 75.43 23.28C75.43 24.62 75.77 27.22 75.95 28.62C76.0098 29.1257 75.9725 29.6383 75.84 30.13V30.22C75.6873 30.7356 75.4322 31.2152 75.09 31.63C74.7614 32.0369 74.3574 32.3764 73.9 32.63C73.4253 32.8738 72.9103 33.0297 72.38 33.09L69.2 33.37L69.12 33.66C69.01 34.06 68.87 34.51 68.69 35.02C68.51 35.53 68.36 36.02 68.19 36.39L68.11 36.56L70.3 38.33C70.7156 38.6894 71.0556 39.1279 71.3 39.62C71.4826 40.059 71.5907 40.5254 71.62 41V41.05C71.6872 41.5866 71.643 42.1313 71.49 42.65C71.3511 43.1372 71.1241 43.5948 70.82 44L67.33 48.22C66.9967 48.63 66.5854 48.9699 66.12 49.22C65.6485 49.4837 65.1276 49.6471 64.59 49.7C64.0566 49.762 63.5162 49.7178 63 49.57H62.92C62.4649 49.4155 62.0389 49.1856 61.66 48.89L59.07 46.78L58.81 46.93C58.37 47.19 57.94 47.42 57.53 47.62C57.12 47.82 56.77 48 56.36 48.18L56 48.3L56.28 51C56.342 51.5558 56.284 52.1185 56.11 52.65C55.9413 53.1427 55.6837 53.6002 55.35 54L55.29 54.06C54.9664 54.4239 54.5845 54.7314 54.16 54.97H54.06C53.6091 55.1971 53.1216 55.3427 52.62 55.4C51.28 55.4 48.68 55.75 47.28 55.93C46.7433 55.9892 46.2001 55.9451 45.68 55.8C45.1636 55.6443 44.684 55.3858 44.27 55.04H44.22C43.8354 54.6989 43.5138 54.2927 43.27 53.84C43.0202 53.3677 42.8641 52.8516 42.81 52.32L42.52 49.15L42.24 49.07L40.88 48.64C40.4 48.48 39.88 48.31 39.51 48.13L39.32 48.05L37.52 50.24C37.1901 50.6136 36.7933 50.9222 36.35 51.15L36.24 51.22C35.8007 51.4258 35.3315 51.5608 34.85 51.62H34.8C34.2601 51.6866 33.7122 51.6424 33.19 51.49C32.7096 51.3446 32.2591 51.1143 31.86 50.81L27.63 47.32C27.2222 46.9845 26.8827 46.5737 26.63 46.11C26.375 45.642 26.212 45.1294 26.15 44.6C26.0852 44.0607 26.1433 43.5137 26.32 43C26.4679 42.539 26.6983 42.1087 27 41.73L29.11 39.14L29 38.89C28.78 38.52 28.57 38.12 28.36 37.7C28.11 37.24 27.9 36.8 27.71 36.35L27.62 36.12L24.94 36.37C24.3882 36.435 23.8288 36.3804 23.3 36.21C22.834 36.0571 22.4001 35.8198 22.02 35.51L21.87 35.4C21.4624 35.0486 21.1233 34.6248 20.87 34.15C20.6415 33.6997 20.4958 33.2119 20.44 32.71C20.44 31.36 20.09 28.8 19.91 27.38C19.8277 26.8296 19.8583 26.2682 20 25.73C20.1557 25.2136 20.4142 24.734 20.76 24.32C21.0975 23.9181 21.5038 23.5795 21.96 23.32C22.433 23.0737 22.9491 22.9209 23.48 22.87L26.65 22.58L26.73 22.29C26.85 21.9 26.99 21.44 27.16 20.94C27.33 20.44 27.5 19.94 27.67 19.56L27.75 19.37L25.7 17.63C25.3033 17.3224 24.9647 16.9465 24.7 16.52L24.64 16.42C24.4111 15.9777 24.2685 15.4957 24.22 15V14.92C24.1631 14.378 24.2176 13.8302 24.38 13.31C24.5461 12.7939 24.811 12.315 25.16 11.9L28.51 7.81C28.8161 7.43472 29.189 7.11939 29.61 6.88L29.73 6.8C30.1993 6.53965 30.7163 6.37641 31.25 6.32C31.7992 6.25023 32.357 6.30842 32.88 6.49C33.3478 6.65037 33.7842 6.89059 34.17 7.2L36.74 9.27L37 9.07C37.41 8.83 37.83 8.61 38.25 8.4C38.67 8.19 39.13 7.96 39.54 7.78L39.78 7.69L39.51 5C39.4493 4.4759 39.4969 3.94492 39.65 3.44V3.36C39.8036 2.89638 40.0372 2.46319 40.34 2.08L40.49 2C40.8342 1.59299 41.2513 1.25384 41.72 1C42.1714 0.761688 42.663 0.60911 43.17 0.550001C44.51 0.550001 47.11 0.210001 48.51 0.030001C49.0466 -0.0352286 49.5909 0.00899519 50.11 0.160001C50.6256 0.312678 51.1052 0.567762 51.52 0.910001C51.9222 1.24326 52.261 1.64639 52.52 2.1C52.7755 2.58569 52.9382 3.11471 53 3.66L53.28 6.84L53.57 6.92C53.96 7.03 54.42 7.17 54.93 7.34L56.3 7.85L56.5 7.94L58.23 5.85C58.5677 5.44048 58.9822 5.1008 59.45 4.85C59.9286 4.58259 60.4554 4.41265 61 4.35C61.5412 4.28297 62.0905 4.33415 62.61 4.5H62.56ZM46.71 16.11C47.4786 16.0451 48.2514 16.0451 49.02 16.11C49.8203 16.1884 50.6108 16.3458 51.38 16.58C52.1128 16.81 52.8226 17.108 53.5 17.47L53.59 17.52C54.2237 17.8708 54.8259 18.2756 55.39 18.73C56.564 19.725 57.5438 20.9286 58.28 22.28C58.668 22.9731 58.9766 23.7078 59.2 24.47C59.4329 25.2381 59.5804 26.0296 59.64 26.83C59.7098 27.5951 59.7098 28.3649 59.64 29.13C59.5718 29.9309 59.4176 30.7221 59.18 31.49V31.59C58.9533 32.2809 58.6655 32.9502 58.32 33.59C57.9586 34.258 57.5404 34.8937 57.07 35.49L56.97 35.6C55.996 36.7422 54.8197 37.6948 53.5 38.41C52.8006 38.7921 52.0633 39.1005 51.3 39.33C50.5328 39.5524 49.7457 39.6997 48.95 39.77C48.168 39.8349 47.382 39.8349 46.6 39.77C45.7996 39.6928 45.0089 39.5353 44.24 39.3C43.5111 39.0681 42.8048 38.7702 42.13 38.41C41.4625 38.0439 40.827 37.6224 40.23 37.15C39.6475 36.6608 39.1119 36.1185 38.63 35.53C38.1412 34.9293 37.7062 34.2869 37.33 33.61C36.9504 32.9106 36.6454 32.1732 36.42 31.41C36.1871 30.6419 36.0396 29.8504 35.98 29.05C35.9102 28.2849 35.9102 27.5151 35.98 26.75C36.0482 25.9491 36.2024 25.1579 36.44 24.39C36.6681 23.6565 36.9662 22.9466 37.33 22.27L37.38 22.18C37.7259 21.5402 38.1311 20.9342 38.59 20.37L38.67 20.27C39.1393 19.7107 39.6617 19.1983 40.23 18.74C40.8309 18.2544 41.4734 17.8228 42.15 17.45C42.8457 17.0672 43.5797 16.7589 44.34 16.53C45.1109 16.3085 45.9011 16.1612 46.7 16.09L46.71 16.11ZM48.71 19.18C48.1179 19.125 47.5221 19.125 46.93 19.18C46.3441 19.2287 45.7646 19.3359 45.2 19.5C44.6483 19.6636 44.1154 19.8848 43.61 20.16C43.0925 20.4509 42.6007 20.7855 42.14 21.16C41.7294 21.4936 41.348 21.8616 41 22.26C40.6613 22.683 40.3602 23.1347 40.1 23.61V23.69C39.8321 24.1988 39.6112 24.731 39.44 25.28C39.2321 25.8565 39.0846 26.453 39 27.06C38.95 27.6523 38.95 28.2477 39 28.84C39.0481 29.4301 39.1587 30.0133 39.33 30.58C39.4921 31.1433 39.7169 31.6867 40 32.2C40.2874 32.7166 40.6222 33.2054 41 33.66C41.3521 34.0986 41.7474 34.5006 42.18 34.86C42.6216 35.211 43.0935 35.5223 43.59 35.79C44.1032 36.0588 44.6385 36.2829 45.19 36.46C45.7524 36.6367 46.3326 36.7508 46.92 36.8C47.5221 36.855 48.1279 36.855 48.73 36.8C49.3191 36.7504 49.9018 36.6432 50.47 36.48C51.0016 36.3139 51.5144 36.0927 52 35.82C52.5198 35.5327 53.0119 35.1979 53.47 34.82C53.8814 34.4801 54.2628 34.1054 54.61 33.7C54.9871 33.2519 55.3218 32.7698 55.61 32.26C55.865 31.7706 56.0823 31.2624 56.26 30.74V30.68C56.4337 30.113 56.5509 29.5301 56.61 28.94C56.66 28.3477 56.66 27.7523 56.61 27.16C56.5619 26.57 56.4513 25.9867 56.28 25.42C56.1171 24.8681 55.8959 24.3351 55.62 23.83C55.335 23.3119 55.0001 22.8229 54.62 22.37C54.2679 21.9314 53.8726 21.5294 53.44 21.17C53.0221 20.837 52.5772 20.5393 52.11 20.28H52.03C51.5171 20.0107 50.9817 19.7866 50.43 19.61C49.8707 19.4345 49.294 19.3205 48.71 19.27V19.18ZM16.25 85.85C16.9545 85.848 17.6438 86.0551 18.2305 86.4451C18.8173 86.8351 19.2752 87.3904 19.5461 88.0407C19.8171 88.691 19.889 89.4071 19.7528 90.0984C19.6166 90.7896 19.2783 91.4249 18.7808 91.9237C18.2834 92.4226 17.6491 92.7627 16.9582 92.9009C16.2674 93.039 15.5511 92.9691 14.9 92.7C14.2489 92.4308 13.6923 91.9745 13.3007 91.3889C12.909 90.8032 12.7 90.1145 12.7 89.41C12.7 88.4676 13.0737 87.5636 13.7392 86.8962C14.4046 86.2289 15.3076 85.8526 16.25 85.85Z" fill="#FF004F"/>
</g>
<defs>
<clipPath id="clip0_2_23">
<rect width="122.88" height="108.82" fill="white"/>
</clipPath>
</defs>
</svg>
