<svg width="507" height="343" viewBox="0 0 507 343" fill="none" xmlns="http://www.w3.org/2000/svg">
<g clip-path="url(#clip0_1_2)">
<path opacity="0.24" d="M16.09 156.01C34.17 134.01 59.96 119.77 80.37 99.88C90.65 89.88 99.53 78.45 110.37 69.11C135.28 47.73 169.05 38.87 201.87 38.54C234.69 38.21 267.05 45.69 298.87 53.65C346.14 65.47 394.23 78.96 433.94 107.21C448.14 117.31 461.01 129.13 473.84 140.91C485.92 152.01 498.48 163.84 503.52 179.45C511.72 204.83 497.93 231.45 492.52 257.53C490.44 267.61 489.52 278.22 484.43 287.17C472.43 308.22 443.95 311.31 419.75 311.95L164.3 318.68C115.2 319.98 62.07 320.09 22.38 291.14C-1.97001 273.3 -0.500006 254.75 0.379994 228.54C1.31999 200.68 -3.52001 179.88 16.09 156.01Z" fill="#FF004F"/>
<path d="M457.56 170.79H399.15C385.525 170.79 374.48 181.835 374.48 195.46V292.35C374.48 305.975 385.525 317.02 399.15 317.02H457.56C471.185 317.02 482.23 305.975 482.23 292.35V195.46C482.23 181.835 471.185 170.79 457.56 170.79Z" fill="#FF004F"/>
<path d="M457.56 170.79H399.15C385.525 170.79 374.48 181.835 374.48 195.46V292.35C374.48 305.975 385.525 317.02 399.15 317.02H457.56C471.185 317.02 482.23 305.975 482.23 292.35V195.46C482.23 181.835 471.185 170.79 457.56 170.79Z" fill="url(#paint0_linear_1_2)"/>
<path opacity="0.28" d="M428.36 170.79H410.4V282.81H428.36V170.79Z" fill="url(#paint1_linear_1_2)"/>
<path d="M478.31 285.38H407.49C401.542 285.38 396.72 290.202 396.72 296.15V309.67C396.72 315.618 401.542 320.44 407.49 320.44H478.31C484.258 320.44 489.08 315.618 489.08 309.67V296.15C489.08 290.202 484.258 285.38 478.31 285.38Z" fill="#FF004F"/>
<path d="M476.92 289.93H410.89C405.897 289.93 401.85 293.977 401.85 298.97V307.99C401.85 312.983 405.897 317.03 410.89 317.03H476.92C481.913 317.03 485.96 312.983 485.96 307.99V298.97C485.96 293.977 481.913 289.93 476.92 289.93Z" fill="url(#paint2_linear_1_2)"/>
<path d="M465.7 186.47H408.69V248.04H465.7V186.47Z" fill="url(#paint3_linear_1_2)"/>
<path d="M383.28 140.79L348.69 138.43L319.81 54.48L202.22 36.74L159.75 79.89L146.83 65.24L191.83 12.54L337.79 32.3L383.28 140.79ZM351.94 134.19L376.38 135.85L334.67 36.4L193.61 17.3L152.73 65.2L159.93 73.35L200.63 31.99L323.15 50.47L351.94 134.19Z" fill="#FF004F"/>
<path d="M383.28 140.79L348.69 138.43L319.81 54.48L202.22 36.74L159.75 79.89L146.83 65.24L191.83 12.54L337.79 32.3L383.28 140.79ZM351.94 134.19L376.38 135.85L334.67 36.4L193.61 17.3L152.73 65.2L159.93 73.35L200.63 31.99L323.15 50.47L351.94 134.19Z" fill="url(#paint4_linear_1_2)"/>
<path d="M389.39 120.41L351.84 25.64L195.94 2.44L139.39 67.9L151.57 82.3V110.08H149.3V83.13L136.39 67.88L195.04 0L353.47 23.58L391.5 119.57L389.39 120.41Z" fill="#FF004F"/>
<path d="M389.69 138.66L355.1 136.3L326.22 52.3L208.63 34.6L166.17 77.75L153.24 63.11L198.24 10.41L344.24 30.19L389.69 138.66ZM358.36 132.05L382.79 133.72L341.09 34.3L200.03 15.15L159.15 63.06L166.35 71.22L207.03 29.86L329.56 48.3L358.36 132.05Z" fill="#FF004F"/>
<path d="M359 135.5L354.47 132.85L368.6 108.73L344.12 102.24L358.58 81.79L334.86 75.86L347.41 56.44L325.12 49.13L318.67 34.1L296.81 47.08L283.67 29.18L263.17 42.52L251.96 25.45L236.69 38.38L222.7 20.39L202.01 38.07L183.6 37.35L185.65 57.8L169.59 54.92L168.92 71.91L163.67 71.7L165.12 50.93L179.74 51.41L179.65 33.68L200.16 32.75L222.91 14.52L237.47 30.84L252.84 19.65L264.66 37.1L284.12 23.14L298.19 41.03L320.04 27.56L329 44.89L353.39 54.35L343.25 72.55L364.01 79.29L351.95 99.37L375.05 105.8L359 135.5Z" fill="#FF004F"/>
<path d="M403.57 115.04H108.43C97.7764 115.04 89.14 123.676 89.14 134.33V303.73C89.14 314.384 97.7764 323.02 108.43 323.02H403.57C414.224 323.02 422.86 314.384 422.86 303.73V134.33C422.86 123.676 414.224 115.04 403.57 115.04Z" fill="#FF004F"/>
<path d="M400.69 112.76H110.52C99.9713 112.76 91.42 121.311 91.42 131.86V300.88C91.42 311.429 99.9713 319.98 110.52 319.98H400.69C411.239 319.98 419.79 311.429 419.79 300.88V131.86C419.79 121.311 411.239 112.76 400.69 112.76Z" fill="url(#paint5_linear_1_2)"/>
<path d="M397.39 123.21H115C105.258 123.21 97.36 131.108 97.36 140.85V288.32C97.36 298.062 105.258 305.96 115 305.96H397.39C407.132 305.96 415.03 298.062 415.03 288.32V140.85C415.03 131.108 407.132 123.21 397.39 123.21Z" fill="white"/>
<path opacity="0.24" d="M205.72 149.38H118.54V198.97H205.72V149.38Z" fill="#FF004F"/>
<path d="M432.38 325.58V332.93C432.383 334.227 432.129 335.512 431.634 336.71C431.139 337.909 430.412 338.998 429.495 339.915C428.578 340.832 427.489 341.559 426.29 342.054C425.092 342.549 423.807 342.803 422.51 342.8H84.96C83.6631 342.803 82.3785 342.549 81.1798 342.054C79.9811 341.559 78.892 340.832 77.975 339.915C77.0579 338.998 76.331 337.909 75.8359 336.71C75.3409 335.512 75.0874 334.227 75.09 332.93V325.58C75.0865 324.579 75.2383 323.584 75.54 322.63C76.1681 320.626 77.4216 318.876 79.1168 317.636C80.812 316.396 82.8598 315.731 84.96 315.74H422.51C424.609 315.73 426.656 316.395 428.35 317.635C430.044 318.875 431.295 320.626 431.92 322.63C432.23 323.582 432.385 324.578 432.38 325.58Z" fill="#FF004F"/>
<path d="M431.92 322.6C431.297 324.608 430.047 326.364 428.354 327.611C426.661 328.858 424.613 329.531 422.51 329.53H84.96C82.8559 329.531 80.8066 328.859 79.1117 327.612C77.4168 326.365 76.1653 324.609 75.54 322.6C76.1681 320.596 77.4216 318.846 79.1168 317.606C80.812 316.366 82.8598 315.701 84.96 315.71H422.51C424.609 315.7 426.656 316.365 428.35 317.605C430.044 318.845 431.295 320.596 431.92 322.6Z" fill="url(#paint6_linear_1_2)"/>
<path d="M204.85 315.47H302.85V319.47C302.85 320.757 302.597 322.031 302.104 323.22C301.612 324.409 300.89 325.49 299.98 326.4C299.07 327.31 297.989 328.032 296.8 328.524C295.611 329.017 294.337 329.27 293.05 329.27H214.65C213.363 329.27 212.089 329.017 210.9 328.524C209.711 328.032 208.63 327.31 207.72 326.4C206.81 325.49 206.088 324.409 205.596 323.22C205.103 322.031 204.85 320.757 204.85 319.47V315.47Z" fill="url(#paint7_linear_1_2)"/>
<path d="M55.07 173.98H38.67V339.25H55.07V173.98Z" fill="#FF004F"/>
<path d="M195.39 138.12H119.17C116.143 138.12 113.69 140.573 113.69 143.6V182.23C113.69 185.257 116.143 187.71 119.17 187.71H195.39C198.417 187.71 200.87 185.257 200.87 182.23V143.6C200.87 140.573 198.417 138.12 195.39 138.12Z" fill="white" stroke="#FF004F" stroke-width="0.76" stroke-miterlimit="10"/>
<path d="M296.3 150.66H220.08C217.053 150.66 214.6 153.113 214.6 156.14V194.77C214.6 197.797 217.053 200.25 220.08 200.25H296.3C299.327 200.25 301.78 197.797 301.78 194.77V156.14C301.78 153.113 299.327 150.66 296.3 150.66Z" fill="white" stroke="#FF004F" stroke-width="0.76" stroke-miterlimit="10"/>
<path opacity="0.24" d="M408.48 148.19H314.77V204.4H408.48V148.19Z" fill="#FF004F"/>
<path opacity="0.24" d="M404.17 215.37H115.62V230.54H404.17V215.37Z" fill="#FF004F"/>
<path opacity="0.24" d="M404.17 245.36H115.62V260.53H404.17V245.36Z" fill="#FF004F"/>
<path d="M54.72 230.57L463.1 260.41V288.36L54.32 262.56L54.72 230.57Z" fill="#FF004F"/>
<path d="M54.72 230.57L463.1 260.41V288.36L54.32 262.56L54.72 230.57Z" fill="url(#paint8_linear_1_2)"/>
<path d="M279.59 260.21L279.25 264.58C279.12 266.29 280.02 266.83 280.95 266.91C282.04 266.99 282.85 266.55 282.95 264.91L283.29 260.54L284.29 260.61L283.95 264.93C283.77 267.29 282.41 267.87 280.87 267.75C279.33 267.63 278.09 266.75 278.27 264.57L278.61 260.17L279.59 260.21Z" fill="white"/>
<path d="M288.22 268.18L288.78 260.92L290.06 261.02C290.97 262.8 292.96 266.59 293.3 267.4C293.3 266.47 293.39 265.32 293.48 264.14L293.7 261.3L294.61 261.37L294.05 268.64L292.85 268.54C292.01 266.89 289.95 262.82 289.56 261.98C289.56 262.81 289.46 264.04 289.35 265.36L289.13 268.3L288.22 268.18Z" fill="white"/>
<path d="M299.2 261.72L301.79 261.92C302.259 261.937 302.718 262.053 303.138 262.261C303.559 262.469 303.93 262.763 304.228 263.125C304.526 263.487 304.743 263.909 304.866 264.361C304.989 264.814 305.014 265.287 304.94 265.75C304.945 266.229 304.849 266.704 304.659 267.143C304.469 267.583 304.188 267.978 303.835 268.302C303.483 268.626 303.066 268.873 302.612 269.026C302.158 269.179 301.677 269.235 301.2 269.19L298.64 268.99L299.2 261.72ZM299.66 268.25L301.19 268.37C302.9 268.5 303.8 267.37 303.93 265.69C304 265.341 303.993 264.981 303.91 264.635C303.828 264.289 303.672 263.965 303.452 263.685C303.233 263.404 302.956 263.175 302.639 263.012C302.323 262.849 301.975 262.756 301.62 262.74L300.1 262.62L299.66 268.25Z" fill="white"/>
<path d="M313.63 266.74L310.02 266.46L309.82 269.03L313.82 269.33L313.63 270.15L308.85 269.78L309.41 262.51L314.14 262.87L314.08 263.7L310.29 263.41L310.11 265.63L313.73 265.91L313.63 266.74Z" fill="white"/>
<path d="M318.9 267.3L318.65 270.5L317.7 270.42L318.26 263.16L321.1 263.38C322.6 263.49 323.32 264.38 323.24 265.5C323.234 265.887 323.093 266.26 322.841 266.554C322.589 266.848 322.242 267.045 321.86 267.11C322.45 267.31 322.92 267.8 322.86 269.05V269.37C322.79 269.851 322.79 270.339 322.86 270.82L321.93 270.75C321.841 270.227 321.841 269.693 321.93 269.17V269.02C322.01 268.02 321.75 267.52 320.45 267.42L318.9 267.3ZM318.96 266.49L320.54 266.61C321.65 266.7 322.17 266.31 322.23 265.5C322.29 264.69 321.82 264.25 320.84 264.17L319.15 264.04L318.96 266.49Z" fill="white"/>
<path d="M335.61 269.78C335.416 270.415 335 270.959 334.439 271.314C333.877 271.668 333.207 271.809 332.55 271.71C330.38 271.54 329.41 269.8 329.55 267.71C329.69 265.62 330.93 264.03 333.14 264.2C333.81 264.192 334.459 264.436 334.957 264.885C335.456 265.333 335.767 265.953 335.83 266.62L334.83 266.54C334.757 266.108 334.532 265.716 334.197 265.434C333.862 265.152 333.438 264.999 333 265C331.39 264.88 330.63 266.29 330.52 267.75C330.41 269.21 330.91 270.75 332.59 270.86C333.009 270.915 333.433 270.828 333.796 270.612C334.159 270.396 334.439 270.064 334.59 269.67L335.61 269.78Z" fill="white"/>
<path d="M346.12 268.96C345.96 270.96 344.71 272.66 342.42 272.48C340.28 272.32 339.22 270.57 339.42 268.48C339.62 266.39 340.92 264.84 343.12 265.01C345.32 265.18 346.28 266.8 346.12 268.96ZM340.39 268.53C340.27 270.1 340.96 271.53 342.52 271.66C344.08 271.79 344.99 270.45 345.11 268.9C345.23 267.35 344.57 265.96 342.98 265.83C341.39 265.7 340.51 266.99 340.39 268.53Z" fill="white"/>
<path d="M350.03 272.96L350.59 265.7L351.86 265.79C352.78 267.58 354.76 271.36 355.11 272.18C355.11 271.24 355.21 270.09 355.3 268.91L355.52 266.08L356.43 266.15L355.87 273.41L354.66 273.32C353.82 271.67 351.77 267.6 351.38 266.75C351.38 267.58 351.27 268.81 351.17 270.13L350.95 273.03L350.03 272.96Z" fill="white"/>
<path d="M361.03 271.78C361.075 272.203 361.281 272.592 361.605 272.867C361.929 273.142 362.346 273.283 362.77 273.26C363.9 273.35 364.39 272.86 364.44 272.17C364.49 271.48 364.18 271 362.75 270.54C361.07 269.99 360.52 269.36 360.6 268.34C360.68 267.32 361.55 266.44 363.16 266.56C364.77 266.68 365.53 267.75 365.56 268.71L364.56 268.64C364.55 268.451 364.502 268.265 364.419 268.095C364.336 267.924 364.22 267.772 364.078 267.647C363.935 267.522 363.769 267.427 363.589 267.368C363.409 267.308 363.219 267.285 363.03 267.3C362.14 267.23 361.62 267.59 361.57 268.3C361.52 269.01 361.9 269.3 363.15 269.69C365.15 270.36 365.49 271.19 365.41 272.13C365.32 273.3 364.41 274.13 362.61 274.01C362.286 274.03 361.961 273.986 361.654 273.879C361.347 273.773 361.064 273.606 360.822 273.389C360.58 273.172 360.384 272.91 360.244 272.616C360.105 272.323 360.025 272.005 360.01 271.68L361.03 271.78Z" fill="white"/>
<path d="M371.35 268.13L369.01 267.95L369.07 267.13L374.73 267.56L374.67 268.39L372.32 268.2L371.82 274.65L370.82 274.57L371.35 268.13Z" fill="white"/>
<path d="M379.03 271.99L378.78 275.19L377.83 275.12L378.4 267.85L381.24 268.07C382.73 268.18 383.46 269.07 383.37 270.19C383.368 270.572 383.233 270.941 382.988 271.235C382.744 271.529 382.405 271.728 382.03 271.8C382.61 272 383.09 272.49 383.03 273.75V274.06C382.96 274.541 382.96 275.029 383.03 275.51L382.09 275.44C382.003 274.917 382.003 274.383 382.09 273.86V273.72C382.17 272.72 381.91 272.21 380.6 272.11L379.03 271.99ZM379.09 271.18L380.67 271.3C381.79 271.39 382.3 271.01 382.36 270.19C382.42 269.37 381.95 268.94 380.97 268.87L379.28 268.74L379.09 271.18Z" fill="white"/>
<path d="M388.69 268.64L388.35 273.02C388.21 274.73 389.12 275.27 390.05 275.34C391.13 275.43 391.94 274.99 392.05 273.34L392.39 268.96L393.39 269.04L393.03 273.3C392.85 275.66 391.49 276.24 389.94 276.12C388.39 276 387.17 275.12 387.34 272.93L387.68 268.54L388.69 268.64Z" fill="white"/>
<path d="M403.23 275.01C403.036 275.645 402.62 276.189 402.059 276.544C401.497 276.898 400.827 277.038 400.17 276.94C398 276.77 397.03 275.03 397.17 272.94C397.31 270.85 398.56 269.27 400.76 269.44C401.431 269.43 402.081 269.673 402.58 270.122C403.079 270.571 403.39 271.192 403.45 271.86L402.45 271.78C402.381 271.349 402.158 270.958 401.824 270.677C401.49 270.396 401.066 270.244 400.63 270.25C399.02 270.12 398.26 271.53 398.15 272.99C398.04 274.45 398.54 275.99 400.22 276.11C400.641 276.165 401.069 276.076 401.432 275.856C401.796 275.636 402.074 275.299 402.22 274.9L403.23 275.01Z" fill="white"/>
<path d="M409.09 271.05L406.75 270.87L406.82 270.04L412.48 270.48L412.41 271.3L410.06 271.12L409.56 277.57L408.56 277.49L409.09 271.05Z" fill="white"/>
<path d="M417.13 270.84L416.57 278.11L415.57 278.03L416.13 270.77L417.13 270.84Z" fill="white"/>
<path d="M427.74 275.3C427.59 277.3 426.33 278.99 424.05 278.81C421.77 278.63 420.84 276.91 421.05 274.81C421.26 272.71 422.56 271.16 424.76 271.33C426.96 271.5 427.91 273.11 427.74 275.3ZM422.02 274.86C421.9 276.43 422.59 277.86 424.15 277.99C425.71 278.12 426.62 276.78 426.74 275.24C426.86 273.7 426.2 272.29 424.6 272.16C423 272.03 422.14 273.3 422.03 274.84L422.02 274.86Z" fill="white"/>
<path d="M431.62 279.3L432.19 272.04L433.46 272.14C434.37 273.92 436.36 277.71 436.71 278.52C436.71 277.58 436.8 276.44 436.9 275.26L437.11 272.42L438.03 272.49L437.46 279.75L436.26 279.66C435.42 278.01 433.36 273.94 432.98 273.1C432.98 273.93 432.87 275.16 432.77 276.48L432.54 279.38L431.62 279.3Z" fill="white"/>
<path d="M442.65 278.09C442.695 278.513 442.901 278.903 443.224 279.18C443.548 279.457 443.965 279.6 444.39 279.58C445.52 279.67 446.01 279.17 446.06 278.48C446.11 277.79 445.79 277.31 444.37 276.86C442.69 276.3 442.14 275.67 442.22 274.65C442.3 273.63 443.16 272.75 444.78 272.87C445.079 272.852 445.379 272.894 445.661 272.993C445.944 273.092 446.205 273.245 446.428 273.445C446.651 273.645 446.832 273.887 446.961 274.157C447.09 274.428 447.165 274.721 447.18 275.02L446.18 274.95C446.149 274.579 445.973 274.236 445.691 273.994C445.408 273.752 445.041 273.632 444.67 273.66C443.78 273.59 443.26 273.94 443.21 274.66C443.16 275.38 443.54 275.66 444.79 276.05C446.79 276.71 447.13 277.54 447.05 278.48C446.96 279.65 446.05 280.48 444.25 280.37C443.925 280.389 443.599 280.343 443.291 280.236C442.984 280.128 442.701 279.961 442.458 279.743C442.215 279.526 442.018 279.262 441.878 278.968C441.737 278.674 441.657 278.355 441.64 278.03L442.65 278.09Z" fill="white"/>
<path d="M66.3374 243.04L65.9974 247.41C65.8674 249.12 66.7674 249.66 67.6974 249.74C68.7874 249.82 69.5974 249.38 69.6974 247.74L70.0374 243.37L71.0374 243.44L70.6974 247.76C70.5174 250.12 69.1574 250.7 67.6174 250.58C66.0774 250.46 64.8374 249.58 65.0174 247.4L65.3574 243L66.3374 243.04Z" fill="white"/>
<path d="M74.9674 251.01L75.5274 243.75L76.8074 243.85C77.7174 245.63 79.7074 249.42 80.0474 250.23C80.0474 249.3 80.1374 248.15 80.2274 246.97L80.4474 244.13L81.3574 244.2L80.7974 251.47L79.5974 251.37C78.7574 249.72 76.6974 245.65 76.3074 244.81C76.3074 245.64 76.2074 246.87 76.0974 248.19L75.8774 251.13L74.9674 251.01Z" fill="white"/>
<path d="M85.9474 244.55L88.5374 244.75C89.006 244.767 89.4656 244.883 89.8859 245.091C90.3061 245.299 90.6775 245.593 90.9753 245.955C91.2731 246.317 91.4906 246.739 91.6133 247.191C91.7361 247.644 91.7614 248.117 91.6874 248.58C91.6923 249.059 91.5965 249.534 91.4062 249.973C91.216 250.413 90.9354 250.808 90.5828 251.132C90.2302 251.456 89.8134 251.703 89.3594 251.856C88.9054 252.009 88.4244 252.065 87.9474 252.02L85.3874 251.82L85.9474 244.55ZM86.4074 251.08L87.9374 251.2C89.6474 251.33 90.5474 250.2 90.6774 248.52C90.7469 248.171 90.7402 247.811 90.6578 247.465C90.5753 247.119 90.4191 246.795 90.1997 246.515C89.9803 246.234 89.7031 246.005 89.3868 245.842C89.0706 245.679 88.7228 245.586 88.3674 245.57L86.8474 245.45L86.4074 251.08Z" fill="white"/>
<path d="M100.377 249.57L96.7674 249.29L96.5674 251.86L100.567 252.16L100.377 252.98L95.5974 252.61L96.1574 245.34L100.887 245.7L100.827 246.53L97.0374 246.24L96.8574 248.46L100.477 248.74L100.377 249.57Z" fill="white"/>
<path d="M105.647 250.13L105.397 253.33L104.447 253.25L105.007 245.99L107.847 246.21C109.347 246.32 110.067 247.21 109.987 248.33C109.981 248.717 109.84 249.09 109.588 249.384C109.336 249.678 108.989 249.875 108.607 249.94C109.197 250.14 109.667 250.63 109.607 251.88V252.2C109.537 252.681 109.537 253.169 109.607 253.65L108.677 253.58C108.589 253.057 108.589 252.523 108.677 252V251.85C108.757 250.85 108.497 250.35 107.197 250.25L105.647 250.13ZM105.707 249.32L107.287 249.44C108.397 249.53 108.917 249.14 108.977 248.33C109.037 247.52 108.567 247.08 107.587 247L105.897 246.87L105.707 249.32Z" fill="white"/>
<path d="M122.357 252.61C122.163 253.245 121.748 253.789 121.186 254.144C120.624 254.498 119.954 254.639 119.297 254.54C117.127 254.37 116.157 252.63 116.297 250.54C116.437 248.45 117.677 246.86 119.887 247.03C120.558 247.022 121.206 247.267 121.705 247.715C122.203 248.163 122.515 248.783 122.577 249.45L121.577 249.37C121.504 248.938 121.28 248.547 120.945 248.265C120.61 247.983 120.185 247.829 119.747 247.83C118.137 247.71 117.377 249.12 117.267 250.58C117.157 252.04 117.657 253.58 119.337 253.69C119.756 253.745 120.181 253.658 120.544 253.442C120.906 253.226 121.186 252.894 121.337 252.5L122.357 252.61Z" fill="white"/>
<path d="M132.867 251.79C132.707 253.79 131.457 255.49 129.167 255.31C127.027 255.15 125.967 253.4 126.167 251.31C126.367 249.22 127.667 247.67 129.867 247.84C132.067 248.01 133.027 249.63 132.867 251.79ZM127.137 251.36C127.017 252.93 127.707 254.36 129.267 254.49C130.827 254.62 131.737 253.28 131.857 251.73C131.977 250.18 131.317 248.79 129.727 248.66C128.137 248.53 127.257 249.82 127.137 251.36Z" fill="white"/>
<path d="M136.777 255.79L137.337 248.53L138.607 248.62C139.527 250.41 141.507 254.19 141.857 255.01C141.857 254.07 141.957 252.92 142.047 251.74L142.267 248.91L143.177 248.98L142.617 256.24L141.407 256.15C140.567 254.5 138.517 250.43 138.127 249.58C138.127 250.41 138.017 251.64 137.917 252.96L137.697 255.86L136.777 255.79Z" fill="white"/>
<path d="M147.777 254.61C147.823 255.033 148.029 255.422 148.352 255.697C148.676 255.972 149.093 256.113 149.517 256.09C150.647 256.18 151.137 255.69 151.187 255C151.237 254.31 150.927 253.83 149.497 253.37C147.817 252.82 147.267 252.19 147.347 251.17C147.427 250.15 148.297 249.27 149.907 249.39C151.517 249.51 152.277 250.58 152.307 251.54L151.307 251.47C151.297 251.281 151.249 251.095 151.167 250.925C151.084 250.754 150.968 250.602 150.825 250.477C150.682 250.352 150.516 250.257 150.336 250.198C150.156 250.138 149.966 250.115 149.777 250.13C148.887 250.06 148.367 250.42 148.317 251.13C148.267 251.84 148.647 252.13 149.897 252.52C151.897 253.19 152.237 254.02 152.157 254.96C152.067 256.13 151.157 256.96 149.357 256.84C149.033 256.86 148.708 256.816 148.401 256.709C148.094 256.603 147.812 256.436 147.57 256.219C147.328 256.003 147.131 255.74 146.992 255.446C146.852 255.153 146.773 254.835 146.757 254.51L147.777 254.61Z" fill="white"/>
<path d="M158.097 250.96L155.757 250.78L155.817 249.96L161.477 250.39L161.417 251.22L159.067 251.03L158.567 257.48L157.567 257.4L158.097 250.96Z" fill="white"/>
<path d="M165.777 254.82L165.527 258.02L164.577 257.95L165.147 250.68L167.987 250.9C169.477 251.01 170.207 251.9 170.117 253.02C170.115 253.402 169.98 253.771 169.736 254.065C169.491 254.359 169.153 254.558 168.777 254.63C169.357 254.83 169.837 255.32 169.777 256.58V256.89C169.707 257.371 169.707 257.859 169.777 258.34L168.837 258.27C168.75 257.747 168.75 257.213 168.837 256.69V256.55C168.917 255.55 168.657 255.04 167.347 254.94L165.777 254.82ZM165.837 254.01L167.417 254.13C168.537 254.22 169.047 253.84 169.107 253.02C169.167 252.2 168.697 251.77 167.717 251.7L166.027 251.57L165.837 254.01Z" fill="white"/>
<path d="M175.437 251.47L175.097 255.85C174.957 257.56 175.867 258.1 176.797 258.17C177.877 258.26 178.687 257.82 178.797 256.17L179.137 251.79L180.137 251.87L179.777 256.13C179.597 258.49 178.237 259.07 176.687 258.95C175.137 258.83 173.917 257.95 174.087 255.76L174.427 251.37L175.437 251.47Z" fill="white"/>
<path d="M189.977 257.84C189.783 258.475 189.368 259.019 188.806 259.374C188.244 259.728 187.574 259.869 186.917 259.77C184.747 259.6 183.777 257.86 183.917 255.77C184.057 253.68 185.307 252.1 187.507 252.27C188.178 252.26 188.828 252.503 189.327 252.952C189.826 253.401 190.137 254.022 190.197 254.69L189.197 254.61C189.128 254.179 188.906 253.788 188.572 253.507C188.238 253.226 187.814 253.074 187.377 253.08C185.767 252.95 185.007 254.36 184.897 255.82C184.787 257.28 185.287 258.82 186.967 258.94C187.389 258.996 187.816 258.906 188.18 258.686C188.543 258.466 188.821 258.129 188.967 257.73L189.977 257.84Z" fill="white"/>
<path d="M195.837 253.88L193.497 253.7L193.567 252.87L199.227 253.31L199.157 254.13L196.807 253.95L196.307 260.4L195.307 260.32L195.837 253.88Z" fill="white"/>
<path d="M203.877 253.67L203.317 260.94L202.317 260.86L202.877 253.6L203.877 253.67Z" fill="white"/>
<path d="M214.487 258.13C214.337 260.13 213.077 261.82 210.797 261.64C208.517 261.46 207.587 259.74 207.797 257.64C208.007 255.54 209.307 253.99 211.507 254.16C213.707 254.33 214.657 255.94 214.487 258.13ZM208.767 257.69C208.647 259.26 209.337 260.69 210.897 260.82C212.457 260.95 213.367 259.61 213.487 258.07C213.607 256.53 212.947 255.12 211.347 254.99C209.747 254.86 208.887 256.13 208.777 257.67L208.767 257.69Z" fill="white"/>
<path d="M218.367 262.13L218.937 254.87L220.207 254.97C221.117 256.75 223.107 260.54 223.457 261.35C223.457 260.41 223.547 259.27 223.647 258.09L223.857 255.25L224.777 255.32L224.207 262.58L223.007 262.49C222.167 260.84 220.107 256.77 219.727 255.93C219.727 256.76 219.617 257.99 219.517 259.31L219.287 262.21L218.367 262.13Z" fill="white"/>
<path d="M229.397 260.92C229.443 261.343 229.648 261.733 229.972 262.01C230.295 262.287 230.712 262.43 231.137 262.41C232.267 262.5 232.757 262 232.807 261.31C232.857 260.62 232.537 260.14 231.117 259.69C229.437 259.13 228.887 258.5 228.967 257.48C229.047 256.46 229.907 255.58 231.527 255.7C231.826 255.682 232.126 255.724 232.409 255.823C232.692 255.922 232.952 256.075 233.175 256.275C233.398 256.475 233.579 256.717 233.709 256.987C233.838 257.258 233.912 257.551 233.927 257.85L232.927 257.78C232.897 257.409 232.721 257.066 232.438 256.824C232.155 256.582 231.788 256.462 231.417 256.49C230.527 256.42 230.007 256.77 229.957 257.49C229.907 258.21 230.287 258.49 231.537 258.88C233.537 259.54 233.877 260.37 233.797 261.31C233.707 262.48 232.797 263.31 230.997 263.2C230.672 263.219 230.346 263.173 230.039 263.066C229.731 262.958 229.448 262.791 229.205 262.573C228.963 262.356 228.766 262.092 228.625 261.798C228.485 261.504 228.404 261.185 228.387 260.86L229.397 260.92Z" fill="white"/>
<path d="M242.79 244.33L366.79 253.74L243.65 274.26L152.15 267.42L242.79 244.33Z" fill="url(#paint9_linear_1_2)"/>
<path d="M53.32 269.36L457.43 204.17L459.83 228.97L53.52 295.75L53.32 269.36Z" fill="#FF004F"/>
<path d="M53.32 269.36L457.43 204.17L459.83 228.97L53.52 295.75L53.32 269.36Z" fill="url(#paint10_linear_1_2)"/>
<path d="M473.75 173.98H457.35V339.25H473.75V173.98Z" fill="#FF004F"/>
<path d="M55.07 173.98H38.67V339.25H55.07V173.98Z" fill="url(#paint11_linear_1_2)"/>
<path d="M473.75 173.98H457.35V339.25H473.75V173.98Z" fill="url(#paint12_linear_1_2)"/>
<path d="M485.82 335.75H450.02L454.01 312.55L456.67 296.95L461.83 266.95L471.71 266.85L477.87 296.95L481.06 312.55L485.82 335.75Z" fill="#FF004F"/>
<path d="M485.82 335.75H450.02L454.01 312.55L456.67 296.95L461.83 266.95L471.71 266.85L477.87 296.95L481.06 312.55L485.82 335.75Z" fill="url(#paint13_linear_1_2)"/>
<path d="M492.62 334.54H442.23C440.021 334.54 438.23 336.331 438.23 338.54C438.23 340.749 440.021 342.54 442.23 342.54H492.62C494.829 342.54 496.62 340.749 496.62 338.54C496.62 336.331 494.829 334.54 492.62 334.54Z" fill="#FF004F"/>
<path d="M492.62 334.54H442.23C440.021 334.54 438.23 336.331 438.23 338.54C438.23 340.749 440.021 342.54 442.23 342.54H492.62C494.829 342.54 496.62 340.749 496.62 338.54C496.62 336.331 494.829 334.54 492.62 334.54Z" fill="url(#paint14_linear_1_2)"/>
<path d="M481.06 312.55H454.01L456.67 296.95H477.87L481.06 312.55Z" fill="url(#paint15_linear_1_2)"/>
<path d="M59.96 335.75H24.16L28.15 312.55L30.81 296.95L35.97 266.95L45.85 266.85L52.01 296.95L55.2 312.55L59.96 335.75Z" fill="#FF004F"/>
<path d="M59.96 335.75H24.16L28.15 312.55L30.81 296.95L35.97 266.95L45.85 266.85L52.01 296.95L55.2 312.55L59.96 335.75Z" fill="url(#paint16_linear_1_2)"/>
<path d="M66.76 334.54H16.37C14.1609 334.54 12.37 336.331 12.37 338.54C12.37 340.749 14.1609 342.54 16.37 342.54H66.76C68.9691 342.54 70.76 340.749 70.76 338.54C70.76 336.331 68.9691 334.54 66.76 334.54Z" fill="#FF004F"/>
<path d="M66.76 334.54H16.37C14.1609 334.54 12.37 336.331 12.37 338.54C12.37 340.749 14.1609 342.54 16.37 342.54H66.76C68.9691 342.54 70.76 340.749 70.76 338.54C70.76 336.331 68.9691 334.54 66.76 334.54Z" fill="url(#paint17_linear_1_2)"/>
<path d="M55.2 312.55H28.15L30.81 296.95H52.01L55.2 312.55Z" fill="url(#paint18_linear_1_2)"/>
<path d="M204.19 33.61C209.658 33.61 214.09 29.1776 214.09 23.71C214.09 18.2424 209.658 13.81 204.19 13.81C198.722 13.81 194.29 18.2424 194.29 23.71C194.29 29.1776 198.722 33.61 204.19 33.61Z" fill="#FF004F"/>
<path d="M335.21 53.71C341.644 53.71 346.86 48.4941 346.86 42.06C346.86 35.6259 341.644 30.41 335.21 30.41C328.776 30.41 323.56 35.6259 323.56 42.06C323.56 48.4941 328.776 53.71 335.21 53.71Z" fill="#FF004F"/>
<path d="M204.19 33.61C209.658 33.61 214.09 29.1776 214.09 23.71C214.09 18.2424 209.658 13.81 204.19 13.81C198.722 13.81 194.29 18.2424 194.29 23.71C194.29 29.1776 198.722 33.61 204.19 33.61Z" fill="url(#paint19_linear_1_2)"/>
<path d="M207.61 32.19C213.078 32.19 217.51 27.7576 217.51 22.29C217.51 16.8224 213.078 12.39 207.61 12.39C202.142 12.39 197.71 16.8224 197.71 22.29C197.71 27.7576 202.142 32.19 207.61 32.19Z" fill="#FF004F"/>
<path d="M335.88 51.57C341.348 51.57 345.78 47.1376 345.78 41.67C345.78 36.2024 341.348 31.77 335.88 31.77C330.412 31.77 325.98 36.2024 325.98 41.67C325.98 47.1376 330.412 51.57 335.88 51.57Z" fill="url(#paint20_linear_1_2)"/>
<path d="M339.3 50.15C344.768 50.15 349.2 45.7176 349.2 40.25C349.2 34.7824 344.768 30.35 339.3 30.35C333.832 30.35 329.4 34.7824 329.4 40.25C329.4 45.7176 333.832 50.15 339.3 50.15Z" fill="#FF004F"/>
<path d="M159.76 79.89L166.17 77.75L163.97 75.02L157.56 77.44L159.76 79.89Z" fill="#FF004F"/>
<path d="M149.35 67.78L155.77 65.64L153.57 62.9L147.16 65.32L149.35 67.78Z" fill="#FF004F"/>
<path d="M151.49 108.58H149.15V130.93H151.49V108.58Z" fill="#FF004F"/>
<path d="M198.96 2.44H195.94V13.02H198.96V2.44Z" fill="#FF004F"/>
<path d="M149.01 65.04L149.35 67.78L139.05 69.79V66.77L149.01 65.04Z" fill="#FF004F"/>
<path d="M344.21 30.19L350.64 24.67L351.84 25.64L345.19 32.26L344.21 30.19Z" fill="#FF004F"/>
<path d="M152.25 141.3C152.099 141.931 151.749 142.495 151.25 142.91C150.978 143.142 150.656 143.308 150.309 143.394C149.962 143.481 149.599 143.486 149.25 143.41C148.526 143.315 147.861 142.96 147.38 142.41C146.908 141.821 146.66 141.084 146.68 140.33C146.721 139.036 147.063 137.769 147.68 136.63C148.246 135.55 148.941 134.543 149.75 133.63L149.66 133.9C149.81 129.53 150.04 125.16 150.31 120.79C150.46 125.17 150.57 129.54 150.6 133.91V134.02L150.51 134.18C149.96 135.18 149.45 136.25 149 137.28C148.533 138.255 148.239 139.304 148.13 140.38C148.085 140.834 148.196 141.289 148.445 141.671C148.694 142.053 149.066 142.339 149.5 142.48C150.024 142.631 150.585 142.597 151.086 142.382C151.587 142.166 151.999 141.784 152.25 141.3Z" fill="#FF004F"/>
<path opacity="0.24" d="M152.36 144.92C153.835 144.92 155.03 143.725 155.03 142.25C155.03 140.775 153.835 139.58 152.36 139.58C150.885 139.58 149.69 140.775 149.69 142.25C149.69 143.725 150.885 144.92 152.36 144.92Z" fill="#FF004F"/>
<path d="M272 244.391L272.69 248.721C272.96 250.421 273.96 250.721 274.88 250.591C275.96 250.421 276.65 249.801 276.38 248.131L275.69 243.801L276.69 243.651L277.37 247.931C277.75 250.271 276.56 251.151 275.03 251.391C273.5 251.631 272.11 251.111 271.76 248.901L271 244.581L272 244.391Z" fill="white"/>
<path d="M282.2 250.131L281.05 242.931L282.31 242.731C283.62 244.251 286.44 247.471 286.96 248.181C286.74 247.271 286.57 246.131 286.39 244.961L285.93 242.151L286.84 242.011L287.99 249.211L286.8 249.401C285.6 247.991 282.64 244.511 282.07 243.781C282.25 244.591 282.45 245.781 282.65 247.121L283.11 249.991L282.2 250.131Z" fill="white"/>
<path d="M291.37 241.291L293.93 240.881C294.394 240.78 294.874 240.779 295.337 240.88C295.801 240.98 296.238 241.18 296.618 241.465C296.997 241.749 297.311 242.113 297.538 242.53C297.764 242.947 297.898 243.408 297.93 243.881C298.047 244.347 298.065 244.831 297.982 245.304C297.899 245.776 297.718 246.226 297.45 246.624C297.183 247.022 296.834 247.359 296.427 247.614C296.021 247.868 295.565 248.034 295.09 248.101L292.56 248.501L291.37 241.291ZM293.37 247.521L294.88 247.281C296.58 247.011 297.18 245.671 296.88 244.041C296.866 243.686 296.776 243.338 296.615 243.021C296.455 242.704 296.227 242.426 295.949 242.205C295.671 241.983 295.348 241.825 295.003 241.74C294.658 241.655 294.299 241.645 293.95 241.711L292.44 241.951L293.37 247.521Z" fill="white"/>
<path d="M306.57 242.791L303 243.361L303.4 245.911L307.33 245.281V246.121L302.59 246.871L301.44 239.681L306.13 238.931L306.26 239.741L302.5 240.341L302.86 242.551L306.43 241.971L306.57 242.791Z" fill="white"/>
<path d="M311.83 242.151L312.34 245.321L311.4 245.471L310.25 238.271L313.06 237.821C314.54 237.581 315.45 238.261 315.63 239.381C315.713 239.764 315.658 240.163 315.475 240.509C315.292 240.855 314.993 241.125 314.63 241.271C315.25 241.331 315.83 241.701 316.02 242.941L316.07 243.251C316.111 243.735 316.222 244.21 316.4 244.661L315.47 244.811C315.267 244.324 315.142 243.808 315.1 243.281V243.131C314.93 242.131 314.57 241.711 313.28 241.921L311.83 242.151ZM311.7 241.351L313.26 241.101C314.37 240.921 314.78 240.431 314.65 239.621C314.52 238.811 313.96 238.501 312.99 238.621L311.32 238.881L311.7 241.351Z" fill="white"/>
<path d="M328.65 240.581C328.61 241.243 328.333 241.869 327.871 242.344C327.408 242.819 326.791 243.113 326.13 243.171C323.97 243.511 322.63 242.051 322.3 240.011C321.97 237.971 322.79 236.121 324.97 235.771C325.621 235.604 326.31 235.688 326.902 236.007C327.493 236.326 327.942 236.856 328.16 237.491L327.16 237.641C326.991 237.238 326.684 236.908 326.293 236.712C325.902 236.516 325.454 236.466 325.03 236.571C323.44 236.821 323.03 238.371 323.26 239.821C323.49 241.271 324.33 242.631 326 242.371C326.419 242.323 326.81 242.135 327.109 241.837C327.408 241.54 327.599 241.15 327.65 240.731L328.65 240.581Z" fill="white"/>
<path d="M338.68 237.371C339 239.371 338.17 241.291 335.91 241.661C333.65 242.031 332.35 240.551 332.01 238.481C331.67 236.411 332.63 234.591 334.81 234.241C336.83 233.911 338.34 235.231 338.68 237.371ZM333.01 238.291C333.26 239.841 334.27 241.081 335.82 240.831C337.37 240.581 337.94 239.081 337.69 237.551C337.44 236.021 336.48 234.811 334.89 235.061C333.3 235.311 332.77 236.761 333 238.291H333.01Z" fill="white"/>
<path d="M343.39 240.351L342.24 233.161L343.5 232.951C344.8 234.481 347.62 237.691 348.14 238.401C347.92 237.491 347.75 236.401 347.57 235.191L347.12 232.371L348.02 232.231L349.17 239.431L348 239.581C346.8 238.171 343.84 234.691 343.27 233.961C343.45 234.771 343.65 235.961 343.86 237.291L344.32 240.171L343.39 240.351Z" fill="white"/>
<path d="M353.83 236.631C353.981 237.016 354.269 237.331 354.638 237.515C355.007 237.7 355.432 237.741 355.83 237.631C356.95 237.451 357.31 236.851 357.2 236.171C357.09 235.491 356.67 235.101 355.2 234.991C353.44 234.841 352.76 234.361 352.6 233.351C352.44 232.341 353.08 231.281 354.68 231.021C354.966 230.935 355.267 230.907 355.564 230.937C355.861 230.967 356.15 231.056 356.413 231.198C356.676 231.341 356.908 231.533 357.096 231.765C357.285 231.998 357.425 232.265 357.51 232.551L356.51 232.711C356.393 232.358 356.142 232.065 355.811 231.894C355.48 231.724 355.095 231.691 354.74 231.801C353.86 231.941 353.44 232.411 353.55 233.091C353.66 233.771 354.1 233.971 355.41 234.091C357.54 234.261 358.03 234.991 358.18 235.931C358.36 237.091 357.65 238.131 355.89 238.411C355.579 238.505 355.253 238.536 354.931 238.503C354.608 238.471 354.295 238.374 354.01 238.22C353.724 238.066 353.472 237.857 353.268 237.605C353.064 237.352 352.912 237.063 352.82 236.751L353.83 236.631Z" fill="white"/>
<path d="M363 230.671L360.68 231.041L360.55 230.231L366.16 229.331L366.29 230.141L363.96 230.521L364.96 236.901L363.96 237.051L363 230.671Z" fill="white"/>
<path d="M371.42 232.631L371.93 235.791L370.98 235.941L369.83 228.741L372.65 228.291C374.13 228.061 375.04 228.741 375.22 229.861C375.303 230.244 375.248 230.643 375.065 230.989C374.882 231.335 374.583 231.605 374.22 231.751C374.84 231.811 375.41 232.171 375.61 233.411L375.66 233.721C375.702 234.208 375.813 234.686 375.99 235.141L375.06 235.281C374.857 234.794 374.732 234.278 374.69 233.751V233.611C374.52 232.611 374.16 232.191 372.87 232.391L371.42 232.631ZM371.29 231.821L372.85 231.571C373.96 231.391 374.37 230.901 374.24 230.101C374.11 229.301 373.55 228.981 372.58 229.101L370.9 229.371L371.29 231.821Z" fill="white"/>
<path d="M380 227.121L380.69 231.451C380.96 233.151 381.96 233.451 382.89 233.321C383.82 233.191 384.65 232.531 384.39 230.861L383.69 226.531L384.69 226.381L385.38 230.661C385.75 233.001 384.56 233.871 383.03 234.121C381.5 234.371 380.12 233.841 379.76 231.631L379.07 227.271L380 227.121Z" fill="white"/>
<path d="M395.63 229.911C395.592 230.574 395.316 231.2 394.853 231.676C394.39 232.152 393.771 232.445 393.11 232.501C390.95 232.851 389.61 231.391 389.28 229.351C388.95 227.311 389.77 225.451 391.95 225.101C392.599 224.935 393.288 225.019 393.877 225.338C394.467 225.657 394.914 226.187 395.13 226.821L394.18 226.971C394.01 226.569 393.702 226.241 393.312 226.045C392.921 225.849 392.474 225.798 392.05 225.901C390.46 226.161 390.05 227.711 390.28 229.151C390.51 230.591 391.35 231.971 393.02 231.701C393.438 231.653 393.827 231.467 394.126 231.171C394.425 230.876 394.617 230.488 394.67 230.071L395.63 229.911Z" fill="white"/>
<path d="M400.4 224.691L398.09 225.061L397.95 224.251L403.56 223.351L403.69 224.171L401.36 224.541L402.36 230.921L401.36 231.081L400.4 224.691Z" fill="white"/>
<path d="M408.17 222.581L409.32 229.781L408.37 229.931L407.21 222.731L408.17 222.581Z" fill="white"/>
<path d="M419.53 224.451C419.84 226.451 419.02 228.371 416.75 228.731C414.48 229.091 413.19 227.631 412.86 225.561C412.53 223.491 413.47 221.661 415.65 221.311C417.83 220.961 419.19 222.311 419.53 224.451ZM413.86 225.371C414.11 226.921 415.11 228.161 416.66 227.911C418.21 227.661 418.78 226.161 418.54 224.631C418.3 223.101 417.32 221.891 415.74 222.141C414.16 222.391 413.61 223.841 413.86 225.371Z" fill="white"/>
<path d="M424.23 227.431L423.08 220.231L424.34 220.031C425.64 221.551 428.46 224.771 428.99 225.481C428.77 224.571 428.6 223.481 428.41 222.261L427.96 219.451L428.86 219.311L430.01 226.511L428.82 226.701C427.62 225.291 424.67 221.811 424.1 221.081C424.29 221.891 424.48 223.081 424.69 224.411L425.15 227.291L424.23 227.431Z" fill="white"/>
<path d="M434.67 223.701C434.821 224.097 435.117 224.42 435.498 224.606C435.878 224.792 436.315 224.826 436.72 224.701C437.83 224.531 438.19 223.931 438.08 223.251C437.97 222.571 437.55 222.171 436.08 222.061C434.32 221.921 433.63 221.441 433.47 220.421C433.31 219.401 433.95 218.351 435.55 218.101C435.837 218.012 436.139 217.982 436.438 218.011C436.737 218.04 437.027 218.128 437.291 218.27C437.556 218.413 437.789 218.607 437.978 218.84C438.166 219.074 438.306 219.343 438.39 219.631L437.39 219.781C437.275 219.429 437.026 219.136 436.696 218.968C436.366 218.799 435.983 218.768 435.63 218.881C434.75 219.021 434.32 219.491 434.43 220.171C434.54 220.851 434.98 221.051 436.3 221.171C438.43 221.331 438.91 222.071 439.06 223.001C439.25 224.161 438.54 225.211 436.78 225.491C436.469 225.585 436.142 225.617 435.819 225.584C435.495 225.551 435.182 225.455 434.895 225.301C434.609 225.146 434.356 224.937 434.151 224.685C433.946 224.433 433.793 224.143 433.7 223.831L434.67 223.701Z" fill="white"/>
<path d="M78 275.391L78.69 279.721C78.96 281.421 79.96 281.721 80.88 281.591C81.96 281.421 82.65 280.801 82.38 279.131L81.69 274.801L82.69 274.651L83.37 278.931C83.75 281.271 82.56 282.151 81.03 282.391C79.5 282.631 78.11 282.111 77.76 279.901L77 275.581L78 275.391Z" fill="white"/>
<path d="M88.2 281.131L87.05 273.931L88.31 273.731C89.62 275.251 92.44 278.471 92.96 279.181C92.74 278.271 92.57 277.131 92.39 275.961L91.93 273.151L92.84 273.011L93.99 280.211L92.8 280.401C91.6 278.991 88.64 275.511 88.07 274.781C88.25 275.591 88.45 276.781 88.65 278.121L89.11 280.991L88.2 281.131Z" fill="white"/>
<path d="M97.37 272.291L99.93 271.881C100.394 271.78 100.874 271.779 101.337 271.88C101.801 271.98 102.238 272.18 102.618 272.465C102.997 272.749 103.311 273.113 103.538 273.53C103.764 273.947 103.898 274.408 103.93 274.881C104.047 275.347 104.065 275.831 103.982 276.304C103.899 276.776 103.718 277.226 103.45 277.624C103.183 278.022 102.834 278.359 102.427 278.614C102.021 278.868 101.565 279.034 101.09 279.101L98.56 279.501L97.37 272.291ZM99.37 278.521L100.88 278.281C102.58 278.011 103.18 276.671 102.88 275.041C102.866 274.686 102.776 274.338 102.615 274.021C102.455 273.704 102.227 273.426 101.949 273.205C101.671 272.983 101.348 272.825 101.003 272.74C100.658 272.655 100.299 272.645 99.95 272.711L98.44 272.951L99.37 278.521Z" fill="white"/>
<path d="M112.57 273.791L109 274.361L109.4 276.911L113.33 276.281V277.121L108.59 277.871L107.44 270.681L112.13 269.931L112.26 270.741L108.5 271.341L108.86 273.551L112.43 272.971L112.57 273.791Z" fill="white"/>
<path d="M117.83 273.151L118.34 276.321L117.4 276.471L116.25 269.271L119.06 268.821C120.54 268.581 121.45 269.261 121.63 270.381C121.713 270.764 121.658 271.163 121.475 271.509C121.292 271.855 120.993 272.125 120.63 272.271C121.25 272.331 121.83 272.701 122.02 273.941L122.07 274.251C122.111 274.735 122.222 275.21 122.4 275.661L121.47 275.811C121.267 275.324 121.142 274.808 121.1 274.281V274.131C120.93 273.131 120.57 272.711 119.28 272.921L117.83 273.151ZM117.7 272.351L119.26 272.101C120.37 271.921 120.78 271.431 120.65 270.621C120.52 269.811 119.96 269.501 118.99 269.621L117.32 269.881L117.7 272.351Z" fill="white"/>
<path d="M134.65 271.581C134.61 272.243 134.333 272.869 133.871 273.344C133.408 273.819 132.791 274.113 132.13 274.171C129.97 274.511 128.63 273.051 128.3 271.011C127.97 268.971 128.79 267.121 130.97 266.771C131.621 266.604 132.31 266.688 132.902 267.007C133.493 267.326 133.942 267.856 134.16 268.491L133.16 268.641C132.991 268.238 132.684 267.908 132.293 267.712C131.902 267.516 131.454 267.466 131.03 267.571C129.44 267.821 129.03 269.371 129.26 270.821C129.49 272.271 130.33 273.631 132 273.371C132.419 273.323 132.81 273.135 133.109 272.837C133.408 272.54 133.599 272.15 133.65 271.731L134.65 271.581Z" fill="white"/>
<path d="M144.68 268.371C145 270.371 144.17 272.291 141.91 272.661C139.65 273.031 138.35 271.551 138.01 269.481C137.67 267.411 138.63 265.591 140.81 265.241C142.83 264.911 144.34 266.231 144.68 268.371ZM139.01 269.291C139.26 270.841 140.27 272.081 141.82 271.831C143.37 271.581 143.94 270.081 143.69 268.551C143.44 267.021 142.48 265.811 140.89 266.061C139.3 266.311 138.77 267.761 139 269.291H139.01Z" fill="white"/>
<path d="M149.39 271.351L148.24 264.161L149.5 263.951C150.8 265.481 153.62 268.691 154.14 269.401C153.92 268.491 153.75 267.401 153.57 266.191L153.12 263.371L154.02 263.231L155.17 270.431L154 270.581C152.8 269.171 149.84 265.691 149.27 264.961C149.45 265.771 149.65 266.961 149.86 268.291L150.32 271.171L149.39 271.351Z" fill="white"/>
<path d="M159.83 267.631C159.981 268.016 160.269 268.331 160.638 268.515C161.007 268.7 161.432 268.741 161.83 268.631C162.95 268.451 163.31 267.851 163.2 267.171C163.09 266.491 162.67 266.101 161.2 265.991C159.44 265.841 158.76 265.361 158.6 264.351C158.44 263.341 159.08 262.281 160.68 262.021C160.966 261.935 161.267 261.907 161.564 261.937C161.861 261.967 162.15 262.056 162.413 262.198C162.676 262.341 162.908 262.533 163.096 262.765C163.285 262.998 163.425 263.265 163.51 263.551L162.51 263.711C162.393 263.358 162.142 263.065 161.811 262.894C161.48 262.724 161.095 262.691 160.74 262.801C159.86 262.941 159.44 263.411 159.55 264.091C159.66 264.771 160.1 264.971 161.41 265.091C163.54 265.261 164.03 265.991 164.18 266.931C164.36 268.091 163.65 269.131 161.89 269.411C161.579 269.505 161.253 269.536 160.931 269.503C160.608 269.471 160.295 269.374 160.01 269.22C159.724 269.066 159.472 268.857 159.268 268.605C159.064 268.352 158.912 268.063 158.82 267.751L159.83 267.631Z" fill="white"/>
<path d="M169 261.671L166.68 262.041L166.55 261.231L172.16 260.331L172.29 261.141L169.96 261.521L170.96 267.901L169.96 268.051L169 261.671Z" fill="white"/>
<path d="M177.42 263.631L177.93 266.791L176.98 266.941L175.83 259.741L178.65 259.291C180.13 259.061 181.04 259.741 181.22 260.861C181.303 261.244 181.248 261.643 181.065 261.989C180.882 262.335 180.583 262.605 180.22 262.751C180.84 262.811 181.41 263.171 181.61 264.411L181.66 264.721C181.702 265.208 181.813 265.686 181.99 266.141L181.06 266.281C180.857 265.794 180.732 265.278 180.69 264.751V264.611C180.52 263.611 180.16 263.191 178.87 263.391L177.42 263.631ZM177.29 262.821L178.85 262.571C179.96 262.391 180.37 261.901 180.24 261.101C180.11 260.301 179.55 259.981 178.58 260.101L176.9 260.371L177.29 262.821Z" fill="white"/>
<path d="M186 258.121L186.69 262.451C186.96 264.151 187.96 264.451 188.89 264.321C189.82 264.191 190.65 263.531 190.39 261.861L189.69 257.531L190.69 257.381L191.38 261.661C191.75 264.001 190.56 264.871 189.03 265.121C187.5 265.371 186.12 264.841 185.76 262.631L185.07 258.271L186 258.121Z" fill="white"/>
<path d="M201.63 260.911C201.592 261.574 201.316 262.2 200.853 262.676C200.39 263.152 199.771 263.445 199.11 263.501C196.95 263.851 195.61 262.391 195.28 260.351C194.95 258.311 195.77 256.451 197.95 256.101C198.599 255.935 199.288 256.019 199.877 256.338C200.467 256.657 200.914 257.187 201.13 257.821L200.18 257.971C200.01 257.569 199.702 257.241 199.312 257.045C198.921 256.849 198.474 256.798 198.05 256.901C196.46 257.161 196.05 258.711 196.28 260.151C196.51 261.591 197.35 262.971 199.02 262.701C199.438 262.653 199.827 262.467 200.126 262.171C200.425 261.876 200.617 261.488 200.67 261.071L201.63 260.911Z" fill="white"/>
<path d="M206.4 255.691L204.09 256.061L203.95 255.251L209.56 254.351L209.69 255.171L207.36 255.541L208.36 261.921L207.36 262.081L206.4 255.691Z" fill="white"/>
<path d="M214.17 253.581L215.32 260.781L214.37 260.931L213.21 253.731L214.17 253.581Z" fill="white"/>
<path d="M225.53 255.451C225.84 257.451 225.02 259.371 222.75 259.731C220.48 260.091 219.19 258.631 218.86 256.561C218.53 254.491 219.47 252.661 221.65 252.311C223.83 251.961 225.19 253.311 225.53 255.451ZM219.86 256.371C220.11 257.921 221.11 259.161 222.66 258.911C224.21 258.661 224.78 257.161 224.54 255.631C224.3 254.101 223.32 252.891 221.74 253.141C220.16 253.391 219.61 254.841 219.86 256.371Z" fill="white"/>
<path d="M230.23 258.431L229.08 251.231L230.34 251.031C231.64 252.551 234.46 255.771 234.99 256.481C234.77 255.571 234.6 254.481 234.41 253.261L233.96 250.451L234.86 250.311L236.01 257.511L234.82 257.701C233.62 256.291 230.67 252.811 230.1 252.081C230.29 252.891 230.48 254.081 230.69 255.411L231.15 258.291L230.23 258.431Z" fill="white"/>
<path d="M240.67 254.701C240.821 255.097 241.117 255.42 241.498 255.606C241.878 255.792 242.315 255.826 242.72 255.701C243.83 255.531 244.19 254.931 244.08 254.251C243.97 253.571 243.55 253.171 242.08 253.061C240.32 252.921 239.63 252.441 239.47 251.421C239.31 250.401 239.95 249.351 241.55 249.101C241.837 249.012 242.139 248.982 242.438 249.011C242.737 249.04 243.027 249.128 243.291 249.27C243.556 249.413 243.789 249.607 243.978 249.84C244.166 250.074 244.306 250.343 244.39 250.631L243.39 250.781C243.275 250.429 243.026 250.136 242.696 249.968C242.366 249.799 241.983 249.768 241.63 249.881C240.75 250.021 240.32 250.491 240.43 251.171C240.54 251.851 240.98 252.051 242.3 252.171C244.43 252.331 244.91 253.071 245.06 254.001C245.25 255.161 244.54 256.211 242.78 256.491C242.469 256.585 242.142 256.617 241.819 256.584C241.495 256.551 241.182 256.455 240.895 256.301C240.609 256.146 240.356 255.937 240.151 255.685C239.946 255.433 239.793 255.143 239.7 254.831L240.67 254.701Z" fill="white"/>
<path d="M258.21 254.42C259.983 254.42 261.42 252.983 261.42 251.21C261.42 249.437 259.983 248 258.21 248C256.437 248 255 249.437 255 251.21C255 252.983 256.437 254.42 258.21 254.42Z" fill="url(#paint21_linear_1_2)"/>
<path d="M450.21 220.42C451.983 220.42 453.42 218.983 453.42 217.21C453.42 215.437 451.983 214 450.21 214C448.437 214 447 215.437 447 217.21C447 218.983 448.437 220.42 450.21 220.42Z" fill="url(#paint22_linear_1_2)"/>
<path d="M63.21 284.42C64.9828 284.42 66.42 282.983 66.42 281.21C66.42 279.437 64.9828 278 63.21 278C61.4372 278 60 279.437 60 281.21C60 282.983 61.4372 284.42 63.21 284.42Z" fill="url(#paint23_linear_1_2)"/>
</g>
<defs>
<linearGradient id="paint0_linear_1_2" x1="429.84" y1="184.88" x2="423.85" y2="423.47" gradientUnits="userSpaceOnUse">
<stop stop-color="#010101" stop-opacity="0"/>
<stop offset="0.95" stop-color="#010101"/>
</linearGradient>
<linearGradient id="paint1_linear_1_2" x1="393.23" y1="228.16" x2="574.1" y2="218.76" gradientUnits="userSpaceOnUse">
<stop stop-color="#010101" stop-opacity="0"/>
<stop offset="0.95" stop-color="#010101"/>
</linearGradient>
<linearGradient id="paint2_linear_1_2" x1="401.85" y1="303.48" x2="485.96" y2="303.48" gradientUnits="userSpaceOnUse">
<stop stop-color="#010101" stop-opacity="0"/>
<stop offset="0.95" stop-color="#010101"/>
</linearGradient>
<linearGradient id="paint3_linear_1_2" x1="438.45" y1="167.14" x2="435.9" y2="268.9" gradientUnits="userSpaceOnUse">
<stop stop-color="#010101" stop-opacity="0"/>
<stop offset="0.95" stop-color="#010101"/>
</linearGradient>
<linearGradient id="paint4_linear_1_2" x1="146.83" y1="76.67" x2="383.28" y2="76.67" gradientUnits="userSpaceOnUse">
<stop stop-color="#010101" stop-opacity="0"/>
<stop offset="0.95" stop-color="#010101"/>
</linearGradient>
<linearGradient id="paint5_linear_1_2" x1="257.28" y1="281.92" x2="261.25" y2="437.49" gradientUnits="userSpaceOnUse">
<stop stop-color="#010101" stop-opacity="0"/>
<stop offset="0.95" stop-color="#010101"/>
</linearGradient>
<linearGradient id="paint6_linear_1_2" x1="253.62" y1="317.64" x2="256.19" y2="431.37" gradientUnits="userSpaceOnUse">
<stop stop-color="#010101" stop-opacity="0"/>
<stop offset="0.95" stop-color="#010101"/>
</linearGradient>
<linearGradient id="paint7_linear_1_2" x1="252.33" y1="303.26" x2="263.45" y2="408.87" gradientUnits="userSpaceOnUse">
<stop stop-color="#010101" stop-opacity="0"/>
<stop offset="0.95" stop-color="#010101"/>
</linearGradient>
<linearGradient id="paint8_linear_1_2" x1="259.21" y1="251.82" x2="262.63" y2="163.74" gradientUnits="userSpaceOnUse">
<stop stop-color="white" stop-opacity="0"/>
<stop offset="0.95" stop-color="white"/>
</linearGradient>
<linearGradient id="paint9_linear_1_2" x1="270.73" y1="297.71" x2="178.37" y2="-6.72006" gradientUnits="userSpaceOnUse">
<stop stop-color="#010101" stop-opacity="0"/>
<stop offset="0.95" stop-color="#010101"/>
</linearGradient>
<linearGradient id="paint10_linear_1_2" x1="248.65" y1="210.45" x2="270.31" y2="335.87" gradientUnits="userSpaceOnUse">
<stop stop-color="white" stop-opacity="0"/>
<stop offset="0.95" stop-color="white"/>
</linearGradient>
<linearGradient id="paint11_linear_1_2" x1="42.12" y1="256.5" x2="75.47" y2="257.35" gradientUnits="userSpaceOnUse">
<stop stop-color="#010101" stop-opacity="0"/>
<stop offset="0.95" stop-color="#010101"/>
</linearGradient>
<linearGradient id="paint12_linear_1_2" x1="459.65" y1="256.39" x2="489.3" y2="257.53" gradientUnits="userSpaceOnUse">
<stop stop-color="#010101" stop-opacity="0"/>
<stop offset="0.95" stop-color="#010101"/>
</linearGradient>
<linearGradient id="paint13_linear_1_2" x1="472.12" y1="301.92" x2="409.69" y2="298.5" gradientUnits="userSpaceOnUse">
<stop stop-color="#010101" stop-opacity="0"/>
<stop offset="0.95" stop-color="#010101"/>
</linearGradient>
<linearGradient id="paint14_linear_1_2" x1="467.43" y1="333.84" x2="467.43" y2="351.23" gradientUnits="userSpaceOnUse">
<stop stop-color="#010101" stop-opacity="0"/>
<stop offset="0.95" stop-color="#010101"/>
</linearGradient>
<linearGradient id="paint15_linear_1_2" x1="454.01" y1="304.75" x2="481.07" y2="304.75" gradientUnits="userSpaceOnUse">
<stop stop-color="white" stop-opacity="0"/>
<stop offset="0.95" stop-color="white"/>
</linearGradient>
<linearGradient id="paint16_linear_1_2" x1="46.26" y1="301.92" x2="-16.17" y2="298.5" gradientUnits="userSpaceOnUse">
<stop stop-color="#010101" stop-opacity="0"/>
<stop offset="0.95" stop-color="#010101"/>
</linearGradient>
<linearGradient id="paint17_linear_1_2" x1="41.57" y1="333.84" x2="41.57" y2="351.23" gradientUnits="userSpaceOnUse">
<stop stop-color="#010101" stop-opacity="0"/>
<stop offset="0.95" stop-color="#010101"/>
</linearGradient>
<linearGradient id="paint18_linear_1_2" x1="28.15" y1="304.75" x2="55.2" y2="304.75" gradientUnits="userSpaceOnUse">
<stop stop-color="white" stop-opacity="0"/>
<stop offset="0.95" stop-color="white"/>
</linearGradient>
<linearGradient id="paint19_linear_1_2" x1="194.29" y1="23.71" x2="214.09" y2="23.71" gradientUnits="userSpaceOnUse">
<stop stop-color="#010101" stop-opacity="0"/>
<stop offset="0.95" stop-color="#010101"/>
</linearGradient>
<linearGradient id="paint20_linear_1_2" x1="325.98" y1="41.67" x2="345.78" y2="41.67" gradientUnits="userSpaceOnUse">
<stop stop-color="#010101" stop-opacity="0"/>
<stop offset="0.95" stop-color="#010101"/>
</linearGradient>
<linearGradient id="paint21_linear_1_2" x1="254.48" y1="230.33" x2="269.02" y2="311.57" gradientUnits="userSpaceOnUse">
<stop stop-color="#010101" stop-opacity="0"/>
<stop offset="0.95" stop-color="#010101"/>
</linearGradient>
<linearGradient id="paint22_linear_1_2" x1="446.47" y1="196.33" x2="461.01" y2="277.57" gradientUnits="userSpaceOnUse">
<stop stop-color="#010101" stop-opacity="0"/>
<stop offset="0.95" stop-color="#010101"/>
</linearGradient>
<linearGradient id="paint23_linear_1_2" x1="59.47" y1="260.32" x2="74.0101" y2="341.56" gradientUnits="userSpaceOnUse">
<stop stop-color="#010101" stop-opacity="0"/>
<stop offset="0.95" stop-color="#010101"/>
</linearGradient>
<clipPath id="clip0_1_2">
<rect width="506.14" height="342.8" fill="white"/>
</clipPath>
</defs>
</svg>
