<svg xmlns="http://www.w3.org/2000/svg" xmlns:xlink="http://www.w3.org/1999/xlink" width="1026" height="899" viewBox="0 0 1026 899"><rect width="100%" height="100%" fill="#DDDDDD"/><path d="M244.55 482.59L260.54 482.59L260.54 493.96L211.34 493.96L211.34 482.59L229.36 482.59L229.36 430.74Q229.36 427.67 229.55 424.41L229.55 424.41L216.75 435.11Q215.65 435.97 214.57 436.19Q213.49 436.40 212.54 436.22Q211.59 436.03 210.85 435.57Q210.11 435.11 209.74 434.56L209.74 434.56L204.95 427.98L232.07 404.91L244.55 404.91L244.55 482.59ZM336.49 449.50L336.49 449.50Q336.49 461.12 334.00 469.70Q331.51 478.28 327.12 483.88Q322.72 489.48 316.72 492.21Q310.73 494.95 303.78 494.95L303.78 494.95Q296.83 494.95 290.89 492.21Q284.96 489.48 280.59 483.88Q276.22 478.28 273.76 469.70Q271.30 461.12 271.30 449.50L271.30 449.50Q271.30 437.82 273.76 429.27Q276.22 420.72 280.59 415.12Q284.96 409.53 290.89 406.79Q296.83 404.05 303.78 404.05L303.78 404.05Q310.73 404.05 316.72 406.79Q322.72 409.53 327.12 415.12Q331.51 420.72 334.00 429.27Q336.49 437.82 336.49 449.50ZM320.81 449.50L320.81 449.50Q320.81 439.84 319.40 433.51Q317.98 427.18 315.62 423.42Q313.25 419.67 310.17 418.17Q307.10 416.66 303.78 416.66L303.78 416.66Q300.52 416.66 297.47 418.17Q294.43 419.67 292.09 423.42Q289.75 427.18 288.37 433.51Q286.99 439.84 286.99 449.50L286.99 449.50Q286.99 459.16 288.37 465.49Q289.75 471.82 292.09 475.58Q294.43 479.33 297.47 480.83Q300.52 482.34 303.78 482.34L303.78 482.34Q307.10 482.34 310.17 480.83Q313.25 479.33 315.62 475.58Q317.98 471.82 319.40 465.49Q320.81 459.16 320.81 449.50ZM377.08 479.82L399.90 479.82Q402.36 479.82 403.81 481.20Q405.25 482.59 405.25 484.86L405.25 484.86L405.25 493.96L344.24 493.96L344.24 488.92Q344.24 487.38 344.89 485.69Q345.54 484.00 346.95 482.65L346.95 482.65L373.95 455.59Q377.33 452.14 380.01 449.01Q382.68 445.87 384.46 442.80Q386.25 439.72 387.20 436.55Q388.15 433.39 388.15 429.88L388.15 429.88Q388.15 426.68 387.23 424.25Q386.31 421.83 384.62 420.16Q382.93 418.50 380.56 417.67Q378.19 416.84 375.24 416.84L375.24 416.84Q372.53 416.84 370.23 417.61Q367.92 418.38 366.14 419.76Q364.35 421.15 363.12 422.99Q361.89 424.84 361.28 427.05L361.28 427.05Q360.23 429.88 358.57 430.80Q356.91 431.73 353.78 431.23L353.78 431.23L345.78 429.82Q346.70 423.42 349.35 418.60Q351.99 413.77 355.96 410.54Q359.93 407.31 365.06 405.68Q370.20 404.05 376.10 404.05L376.10 404.05Q382.25 404.05 387.36 405.87Q392.46 407.68 396.09 411.00Q399.72 414.32 401.75 419.00Q403.78 423.67 403.78 429.39L403.78 429.39Q403.78 434.31 402.33 438.49Q400.89 442.67 398.46 446.49Q396.03 450.30 392.77 453.87Q389.51 457.43 385.94 461.12L385.94 461.12L365.89 481.60Q368.78 480.74 371.64 480.28Q374.50 479.82 377.08 479.82L377.08 479.82ZM469.40 405.04L443.01 437.32L439.94 441.14Q442.52 439.84 445.50 439.14Q448.49 438.43 451.93 438.43L451.93 438.43Q456.97 438.43 461.74 440.09Q466.51 441.75 470.13 445.10Q473.76 448.45 475.98 453.44Q478.19 458.42 478.19 465.06L478.19 465.06Q478.19 471.27 475.92 476.71Q473.64 482.16 469.52 486.22Q465.40 490.27 459.59 492.61Q453.78 494.95 446.76 494.95L446.76 494.95Q439.63 494.95 433.97 492.67Q428.31 490.40 424.32 486.31Q420.32 482.22 418.20 476.47Q416.08 470.72 416.08 463.71L416.08 463.71Q416.08 457.43 418.63 450.82Q421.18 444.21 426.53 437.08L426.53 437.08L447.75 408.60Q448.86 407.13 450.98 406.08Q453.10 405.04 455.87 405.04L455.87 405.04L469.40 405.04ZM446.46 482.53L446.46 482.53Q450.09 482.53 453.13 481.30Q456.17 480.07 458.36 477.85Q460.54 475.64 461.77 472.65Q463.00 469.67 463.00 466.17L463.00 466.17Q463.00 462.35 461.83 459.31Q460.66 456.27 458.51 454.14Q456.36 452.02 453.34 450.91Q450.33 449.81 446.70 449.81L446.70 449.81Q443.07 449.81 440.12 451.04Q437.17 452.27 435.08 454.45Q432.99 456.63 431.82 459.62Q430.65 462.60 430.65 466.04L430.65 466.04Q430.65 469.73 431.67 472.78Q432.68 475.82 434.68 477.97Q436.68 480.13 439.63 481.33Q442.58 482.53 446.46 482.53ZM576.84 473.61L568.78 481.54L547.93 460.69L526.90 481.66L518.84 473.73L539.88 452.64L519.83 432.59L527.82 424.59L547.87 444.64L567.80 424.72L575.91 432.71L555.93 452.70L576.84 473.61ZM649.04 483.08L649.04 483.08Q652.79 483.08 655.62 482.00Q658.45 480.93 660.38 479.02Q662.32 477.11 663.31 474.47Q664.29 471.82 664.29 468.75L664.29 468.75Q664.29 461.43 660.23 457.68Q656.17 453.93 649.04 453.93L649.04 453.93Q641.90 453.93 637.85 457.68Q633.79 461.43 633.79 468.75L633.79 468.75Q633.79 471.82 634.77 474.47Q635.75 477.11 637.69 479.02Q639.63 480.93 642.46 482.00Q645.29 483.08 649.04 483.08ZM649.04 415.49L649.04 415.49Q645.66 415.49 643.20 416.54Q640.74 417.58 639.11 419.33Q637.48 421.09 636.71 423.36Q635.94 425.64 635.94 428.16L635.94 428.16Q635.94 430.80 636.58 433.29Q637.23 435.79 638.77 437.72Q640.31 439.66 642.83 440.83Q645.35 442.00 649.04 442.00L649.04 442.00Q652.73 442.00 655.25 440.83Q657.77 439.66 659.31 437.72Q660.85 435.79 661.49 433.29Q662.14 430.80 662.14 428.16L662.14 428.16Q662.14 425.64 661.34 423.36Q660.54 421.09 658.94 419.33Q657.34 417.58 654.88 416.54Q652.42 415.49 649.04 415.49ZM664.04 447.59L664.04 447.59Q672.16 450.24 676.04 455.68Q679.91 461.12 679.91 469.00L679.91 469.00Q679.91 474.90 677.67 479.70Q675.42 484.49 671.36 487.88Q667.30 491.26 661.61 493.10Q655.93 494.95 649.04 494.95L649.04 494.95Q642.15 494.95 636.46 493.10Q630.77 491.26 626.71 487.88Q622.65 484.49 620.41 479.70Q618.17 474.90 618.17 469.00L618.17 469.00Q618.17 461.12 622.04 455.68Q625.91 450.24 634.03 447.59L634.03 447.59Q627.57 444.89 624.35 439.91Q621.12 434.92 621.12 427.91L621.12 427.91Q621.12 422.87 623.18 418.50Q625.24 414.14 628.93 410.91Q632.62 407.68 637.75 405.87Q642.89 404.05 649.04 404.05L649.04 404.05Q655.19 404.05 660.32 405.87Q665.46 407.68 669.15 410.91Q672.84 414.14 674.90 418.50Q676.96 422.87 676.96 427.91L676.96 427.91Q676.96 434.92 673.73 439.91Q670.50 444.89 664.04 447.59ZM705.00 431.73L705.00 431.73Q705.00 439.17 708.85 443.07Q712.69 446.98 719.76 446.98L719.76 446.98Q723.45 446.98 726.34 445.81Q729.23 444.64 731.20 442.61Q733.17 440.58 734.18 437.82Q735.20 435.05 735.20 431.85L735.20 431.85Q735.20 428.22 734.09 425.36Q732.99 422.50 730.96 420.53Q728.93 418.57 726.13 417.52Q723.33 416.47 720.01 416.47L720.01 416.47Q716.57 416.47 713.80 417.61Q711.03 418.75 709.06 420.78Q707.09 422.81 706.05 425.61Q705.00 428.41 705.00 431.73ZM697.56 493.96L725.18 459.46Q726.22 458.17 727.14 456.94Q728.07 455.71 728.93 454.48L728.93 454.48Q725.85 456.45 722.16 457.46Q718.47 458.48 714.41 458.48L714.41 458.48Q709.80 458.48 705.37 456.88Q700.94 455.28 697.50 452.05Q694.06 448.82 691.93 444.06Q689.81 439.29 689.81 432.90L689.81 432.90Q689.81 426.93 692.03 421.70Q694.24 416.47 698.24 412.54Q702.24 408.60 707.83 406.33Q713.43 404.05 720.19 404.05L720.19 404.05Q727.02 404.05 732.46 406.20Q737.91 408.36 741.75 412.23Q745.59 416.11 747.65 421.52Q749.71 426.93 749.71 433.39L749.71 433.39Q749.71 437.51 749.01 441.20Q748.30 444.89 747.01 448.30Q745.72 451.71 743.87 454.97Q742.03 458.23 739.75 461.43L739.75 461.43L719.39 490.46Q718.35 491.94 716.26 492.95Q714.17 493.96 711.52 493.96L711.52 493.96L697.56 493.96ZM776.34 431.73L776.34 431.73Q776.34 439.17 780.19 443.07Q784.03 446.98 791.10 446.98L791.10 446.98Q794.79 446.98 797.68 445.81Q800.57 444.64 802.54 442.61Q804.51 440.58 805.52 437.82Q806.54 435.05 806.54 431.85L806.54 431.85Q806.54 428.22 805.43 425.36Q804.33 422.50 802.30 420.53Q800.27 418.57 797.47 417.52Q794.67 416.47 791.35 416.47L791.35 416.47Q787.91 416.47 785.14 417.61Q782.37 418.75 780.40 420.78Q778.43 422.81 777.39 425.61Q776.34 428.41 776.34 431.73ZM768.90 493.96L796.52 459.46Q797.56 458.17 798.48 456.94Q799.41 455.71 800.27 454.48L800.27 454.48Q797.19 456.45 793.50 457.46Q789.81 458.48 785.75 458.48L785.75 458.48Q781.14 458.48 776.71 456.88Q772.28 455.28 768.84 452.05Q765.40 448.82 763.27 444.06Q761.15 439.29 761.15 432.90L761.15 432.90Q761.15 426.93 763.37 421.70Q765.58 416.47 769.58 412.54Q773.58 408.60 779.17 406.33Q784.77 404.05 791.53 404.05L791.53 404.05Q798.36 404.05 803.80 406.20Q809.25 408.36 813.09 412.23Q816.93 416.11 818.99 421.52Q821.05 426.93 821.05 433.39L821.05 433.39Q821.05 437.51 820.35 441.20Q819.64 444.89 818.35 448.30Q817.06 451.71 815.21 454.97Q813.37 458.23 811.09 461.43L811.09 461.43L790.73 490.46Q789.69 491.94 787.60 492.95Q785.51 493.96 782.86 493.96L782.86 493.96L768.90 493.96Z" fill="#999999"/></svg>