<svg width="32" height="32" viewBox="0 0 32 32" fill="none" xmlns="http://www.w3.org/2000/svg">
<path fill-rule="evenodd" clip-rule="evenodd" d="M0 16V32H16H32V16V0H16H0V16Z" fill="#FF004F"/>
<path fill-rule="evenodd" clip-rule="evenodd" d="M0 16V32H16H32V16V0H16H0V16ZM19.601 1.49375C22.425 2.21625 24.343 3.326 26.5085 5.4915C28.674 7.657 29.7838 9.575 30.5063 12.399C31.8223 17.5448 30.3655 22.7117 26.5285 26.5085C24.3412 28.6725 22.408 29.7883 19.601 30.5063C14.4552 31.8223 9.28825 30.3655 5.4915 26.5285C3.3275 24.3412 2.21175 22.408 1.49375 19.601C0.59175 16.0737 1.06 12.2385 2.798 8.9215C3.8615 6.8915 6.89325 3.8605 8.9255 2.79575C12.242 1.05825 16.0715 0.59125 19.601 1.49375ZM21.25 13.5125C21.25 22.6765 21.2292 22.75 18.6432 22.75C17.4547 22.75 16.8458 22.2713 16.5308 21.0893C16.3428 20.3843 16.3133 20.374 14.2622 20.3018L12.1842 20.2288L12.3073 21.507C12.5623 24.163 14.7277 25.9577 17.9552 26.1887C21.0655 26.4112 23.5945 25.2045 24.8197 22.9132C25.3547 21.913 25.3778 21.585 25.4505 13.9375L25.526 6H23.388H21.25V13.5125ZM7.855 21.0362C7.21825 21.345 6.5 22.5125 6.5 23.2385C6.5 24.5273 7.717 25.75 9 25.75C10.2667 25.75 11.5 24.5288 11.5 23.2743C11.5 21.4848 9.483 20.2462 7.855 21.0362Z" fill="white"/>
<path fill-rule="evenodd" clip-rule="evenodd" d="M0 16V32H16H32V16V0H16H0V16ZM19.601 1.49375C22.425 2.21625 24.343 3.326 26.5085 5.4915C28.674 7.657 29.7838 9.575 30.5063 12.399C31.8223 17.5448 30.3655 22.7117 26.5285 26.5085C24.3412 28.6725 22.408 29.7883 19.601 30.5063C14.4552 31.8223 9.28825 30.3655 5.4915 26.5285C3.3275 24.3412 2.21175 22.408 1.49375 19.601C0.59175 16.0737 1.06 12.2385 2.798 8.9215C3.8615 6.8915 6.89325 3.8605 8.9255 2.79575C12.242 1.05825 16.0715 0.59125 19.601 1.49375Z" fill="black"/>
</svg>
